<svg width="166" height="32" viewBox="0 0 166 32" fill="none" xmlns="http://www.w3.org/2000/svg">
<path d="M11.4655 15.0233L18.6781 1.54663H14.9195L9.52809 11.6157L3.81003 1.54663H-0.00386047L7.67926 15.0728L9.61664 18.4804L16.6687 30.8084H20.4826L11.4655 15.0233Z" fill="url(#paint0_linear_360_23)"/>
<path d="M11.4655 15.0233L18.6781 1.54663H14.9195L9.52809 11.6157L3.81003 1.54663H-0.00386047L7.67926 15.0728L9.61664 18.4804L16.6687 30.8084H20.4826L11.4655 15.0233Z" fill="url(#paint1_linear_360_23)"/>
<path d="M32.0626 1.54663V8.88657L36.9559 19.9094H28.437V23.2071H38.3508L41.5724 30.8084H45.1759L32.0626 1.54663Z" fill="url(#paint2_linear_360_23)"/>
<path d="M32.0626 1.54663V8.88657L36.9559 19.9094H28.437V23.2071H38.3508L41.5724 30.8084H45.1759L32.0626 1.54663Z" fill="url(#paint3_linear_360_23)"/>
<path d="M152.13 1.54663V8.88657L157.024 19.9094H148.505V23.2071H158.419L161.64 30.8084H165.244L152.13 1.54663Z" fill="url(#paint4_linear_360_23)"/>
<path d="M152.13 1.54663V8.88657L157.024 19.9094H148.505V23.2071H158.419L161.64 30.8084H165.244L152.13 1.54663Z" fill="url(#paint5_linear_360_23)"/>
<path d="M78.1778 1.54663H74.8565V30.8084H78.1778V1.54663Z" fill="url(#paint6_linear_360_23)"/>
<path d="M78.1778 1.54663H74.8565V30.8084H78.1778V1.54663Z" fill="url(#paint7_linear_360_23)"/>
<path d="M78.1778 1.54663H74.8565V30.8084H78.1778V1.54663Z" fill="url(#paint8_linear_360_23)"/>
<path d="M86.1321 30.8084H90.0174L107.983 1.54663H86.4194V4.84435H102.081L86.1321 30.8084Z" fill="url(#paint9_linear_360_23)"/>
<path d="M86.1321 30.8084H90.0174L107.983 1.54663H86.4194V4.84435H102.081L86.1321 30.8084Z" fill="url(#paint10_linear_360_23)"/>
<path d="M86.1321 30.8084H90.0174L107.983 1.54663H86.4194V4.84435H102.081L86.1321 30.8084Z" fill="url(#paint11_linear_360_23)"/>
<path d="M113.426 30.9858L116.395 12.3046L125.307 31.4667L134.22 12.3046L137.189 30.9858H140.55L135.768 0.888184L125.307 23.4313L114.846 0.888184L110.064 30.9858H113.426Z" fill="url(#paint12_linear_360_23)"/>
<path d="M113.426 30.9858L116.395 12.3046L125.307 31.4667L134.22 12.3046L137.189 30.9858H140.55L135.768 0.888184L125.307 23.4313L114.846 0.888184L110.064 30.9858H113.426Z" fill="url(#paint13_linear_360_23)"/>
<path d="M113.426 30.9858L116.395 12.3046L125.307 31.4667L134.22 12.3046L137.189 30.9858H140.55L135.768 0.888184L125.307 23.4313L114.846 0.888184L110.064 30.9858H113.426Z" fill="url(#paint14_linear_360_23)"/>
<path d="M56.6404 14.6283H51.3681L62.5742 30.8084H66.9022L58.0651 18.0488C62.0045 17.375 65.0111 13.9586 65.0111 9.85778C65.0111 5.27486 61.256 1.54663 56.6404 1.54663H53.1239V5.08756H56.6404C59.2895 5.08756 61.445 7.22744 61.445 9.85778C61.445 12.4881 59.2895 14.6283 56.6404 14.6283Z" fill="url(#paint15_linear_360_23)"/>
<path d="M56.6404 14.6283H51.3681L62.5742 30.8084H66.9022L58.0651 18.0488C62.0045 17.375 65.0111 13.9586 65.0111 9.85778C65.0111 5.27486 61.256 1.54663 56.6404 1.54663H53.1239V5.08756H56.6404C59.2895 5.08756 61.445 7.22744 61.445 9.85778C61.445 12.4881 59.2895 14.6283 56.6404 14.6283Z" fill="url(#paint16_linear_360_23)"/>
<path d="M56.6404 14.6283H51.3681L62.5742 30.8084H66.9022L58.0651 18.0488C62.0045 17.375 65.0111 13.9586 65.0111 9.85778C65.0111 5.27486 61.256 1.54663 56.6404 1.54663H53.1239V5.08756H56.6404C59.2895 5.08756 61.445 7.22744 61.445 9.85778C61.445 12.4881 59.2895 14.6283 56.6404 14.6283Z" fill="url(#paint17_linear_360_23)"/>
<defs>
<linearGradient id="paint0_linear_360_23" x1="-0.00386047" y1="16.1775" x2="165.244" y2="16.1775" gradientUnits="userSpaceOnUse">
<stop stop-color="#EA422A"/>
<stop offset="0.0947882" stop-color="#EC5128"/>
<stop offset="0.523442" stop-color="#F69020"/>
<stop offset="0.836995" stop-color="#FDB71B"/>
<stop offset="1" stop-color="#FFC619"/>
</linearGradient>
<linearGradient id="paint1_linear_360_23" x1="-0.00386047" y1="16.1775" x2="165.244" y2="16.1775" gradientUnits="userSpaceOnUse">
<stop stop-color="#EA422A"/>
<stop offset="0.0947882" stop-color="#EC5128"/>
<stop offset="0.523442" stop-color="#F69020"/>
<stop offset="0.836995" stop-color="#FDB71B"/>
<stop offset="1" stop-color="#FFC619"/>
</linearGradient>
<linearGradient id="paint2_linear_360_23" x1="-0.00385996" y1="16.1775" x2="165.244" y2="16.1775" gradientUnits="userSpaceOnUse">
<stop stop-color="#EA422A"/>
<stop offset="0.0947882" stop-color="#EC5128"/>
<stop offset="0.523442" stop-color="#F69020"/>
<stop offset="0.836995" stop-color="#FDB71B"/>
<stop offset="1" stop-color="#FFC619"/>
</linearGradient>
<linearGradient id="paint3_linear_360_23" x1="-0.00385996" y1="16.1775" x2="165.244" y2="16.1775" gradientUnits="userSpaceOnUse">
<stop stop-color="#EA422A"/>
<stop offset="0.0947882" stop-color="#EC5128"/>
<stop offset="0.523442" stop-color="#F69020"/>
<stop offset="0.836995" stop-color="#FDB71B"/>
<stop offset="1" stop-color="#FFC619"/>
</linearGradient>
<linearGradient id="paint4_linear_360_23" x1="-0.00385241" y1="16.1775" x2="165.244" y2="16.1775" gradientUnits="userSpaceOnUse">
<stop stop-color="#EA422A"/>
<stop offset="0.0947882" stop-color="#EC5128"/>
<stop offset="0.523442" stop-color="#F69020"/>
<stop offset="0.836995" stop-color="#FDB71B"/>
<stop offset="1" stop-color="#FFC619"/>
</linearGradient>
<linearGradient id="paint5_linear_360_23" x1="-0.00385241" y1="16.1775" x2="165.244" y2="16.1775" gradientUnits="userSpaceOnUse">
<stop stop-color="#EA422A"/>
<stop offset="0.0947882" stop-color="#EC5128"/>
<stop offset="0.523442" stop-color="#F69020"/>
<stop offset="0.836995" stop-color="#FDB71B"/>
<stop offset="1" stop-color="#FFC619"/>
</linearGradient>
<linearGradient id="paint6_linear_360_23" x1="-0.00391121" y1="16.1775" x2="165.244" y2="16.1775" gradientUnits="userSpaceOnUse">
<stop stop-color="#EA422A"/>
<stop offset="0.0947882" stop-color="#EC5128"/>
<stop offset="0.523442" stop-color="#F69020"/>
<stop offset="0.836995" stop-color="#FDB71B"/>
<stop offset="1" stop-color="#FFC619"/>
</linearGradient>
<linearGradient id="paint7_linear_360_23" x1="-0.00391121" y1="16.1775" x2="165.244" y2="16.1775" gradientUnits="userSpaceOnUse">
<stop stop-color="#EA422A"/>
<stop offset="0.0947882" stop-color="#EC5128"/>
<stop offset="0.523442" stop-color="#F69020"/>
<stop offset="0.836995" stop-color="#FDB71B"/>
<stop offset="1" stop-color="#FFC619"/>
</linearGradient>
<linearGradient id="paint8_linear_360_23" x1="-0.00391121" y1="16.1775" x2="165.244" y2="16.1775" gradientUnits="userSpaceOnUse">
<stop stop-color="#EA422A"/>
<stop offset="0.0947882" stop-color="#EC5128"/>
<stop offset="0.523442" stop-color="#F69020"/>
<stop offset="0.836995" stop-color="#FDB71B"/>
<stop offset="1" stop-color="#FFC619"/>
</linearGradient>
<linearGradient id="paint9_linear_360_23" x1="-0.00386475" y1="16.1775" x2="165.244" y2="16.1775" gradientUnits="userSpaceOnUse">
<stop stop-color="#EA422A"/>
<stop offset="0.0947882" stop-color="#EC5128"/>
<stop offset="0.523442" stop-color="#F69020"/>
<stop offset="0.836995" stop-color="#FDB71B"/>
<stop offset="1" stop-color="#FFC619"/>
</linearGradient>
<linearGradient id="paint10_linear_360_23" x1="-0.00386475" y1="16.1775" x2="165.244" y2="16.1775" gradientUnits="userSpaceOnUse">
<stop stop-color="#EA422A"/>
<stop offset="0.0947882" stop-color="#EC5128"/>
<stop offset="0.523442" stop-color="#F69020"/>
<stop offset="0.836995" stop-color="#FDB71B"/>
<stop offset="1" stop-color="#FFC619"/>
</linearGradient>
<linearGradient id="paint11_linear_360_23" x1="-0.00386475" y1="16.1775" x2="165.244" y2="16.1775" gradientUnits="userSpaceOnUse">
<stop stop-color="#EA422A"/>
<stop offset="0.0947882" stop-color="#EC5128"/>
<stop offset="0.523442" stop-color="#F69020"/>
<stop offset="0.836995" stop-color="#FDB71B"/>
<stop offset="1" stop-color="#FFC619"/>
</linearGradient>
<linearGradient id="paint12_linear_360_23" x1="-0.00386761" y1="16.1774" x2="165.244" y2="16.1774" gradientUnits="userSpaceOnUse">
<stop stop-color="#EA422A"/>
<stop offset="0.0947882" stop-color="#EC5128"/>
<stop offset="0.523442" stop-color="#F69020"/>
<stop offset="0.836995" stop-color="#FDB71B"/>
<stop offset="1" stop-color="#FFC619"/>
</linearGradient>
<linearGradient id="paint13_linear_360_23" x1="-0.00386761" y1="16.1774" x2="165.244" y2="16.1774" gradientUnits="userSpaceOnUse">
<stop stop-color="#EA422A"/>
<stop offset="0.0947882" stop-color="#EC5128"/>
<stop offset="0.523442" stop-color="#F69020"/>
<stop offset="0.836995" stop-color="#FDB71B"/>
<stop offset="1" stop-color="#FFC619"/>
</linearGradient>
<linearGradient id="paint14_linear_360_23" x1="-0.00386761" y1="16.1774" x2="165.244" y2="16.1774" gradientUnits="userSpaceOnUse">
<stop stop-color="#EA422A"/>
<stop offset="0.0947882" stop-color="#EC5128"/>
<stop offset="0.523442" stop-color="#F69020"/>
<stop offset="0.836995" stop-color="#FDB71B"/>
<stop offset="1" stop-color="#FFC619"/>
</linearGradient>
<linearGradient id="paint15_linear_360_23" x1="-0.00386417" y1="16.1775" x2="165.244" y2="16.1775" gradientUnits="userSpaceOnUse">
<stop stop-color="#EA422A"/>
<stop offset="0.0947882" stop-color="#EC5128"/>
<stop offset="0.523442" stop-color="#F69020"/>
<stop offset="0.836995" stop-color="#FDB71B"/>
<stop offset="1" stop-color="#FFC619"/>
</linearGradient>
<linearGradient id="paint16_linear_360_23" x1="-0.00386417" y1="16.1775" x2="165.244" y2="16.1775" gradientUnits="userSpaceOnUse">
<stop stop-color="#EA422A"/>
<stop offset="0.0947882" stop-color="#EC5128"/>
<stop offset="0.523442" stop-color="#F69020"/>
<stop offset="0.836995" stop-color="#FDB71B"/>
<stop offset="1" stop-color="#FFC619"/>
</linearGradient>
<linearGradient id="paint17_linear_360_23" x1="-0.00386417" y1="16.1775" x2="165.244" y2="16.1775" gradientUnits="userSpaceOnUse">
<stop stop-color="#EA422A"/>
<stop offset="0.0947882" stop-color="#EC5128"/>
<stop offset="0.523442" stop-color="#F69020"/>
<stop offset="0.836995" stop-color="#FDB71B"/>
<stop offset="1" stop-color="#FFC619"/>
</linearGradient>
</defs>
</svg>
