<svg width="76" height="76" viewBox="0 0 76 76" fill="none" xmlns="http://www.w3.org/2000/svg">
<path fill-rule="evenodd" clip-rule="evenodd" d="M41.768 0.0992122C41.047 0.405021 40.9292 0.851184 40.8118 3.72451C40.5769 9.463 39.4755 14.1825 37.3239 18.6683C36.4489 20.4925 34.4694 23.7153 33.9684 24.1311C33.8075 24.2648 33.4663 24.0869 32.3609 23.2924C28.5012 20.5191 25.7144 19.3001 23.9784 19.6258C23.3071 19.7518 22.3211 20.6239 22.1458 21.2467C22.0733 21.5042 17.061 33.5266 11.0071 47.963C4.95322 62.3996 0 74.3432 0 74.5045C0 75.2748 0.721305 76 1.48745 76C1.66028 76 13.6068 71.0454 28.0351 64.9898C42.4636 58.9342 54.472 53.9222 54.7206 53.8521C55.2538 53.7015 56.0412 52.929 56.264 52.338C56.6247 51.3813 56.3804 50.1103 55.4597 48.1519C54.8281 46.8082 53.2342 44.2853 52.0088 42.6897L51.3499 41.8317L52.2896 41.4079C54.2812 40.5098 56.614 39.7363 59.5195 39.0105C60.7057 38.7142 61.2475 37.8251 60.8074 36.8973C60.544 36.342 60.0594 36.0473 59.4094 36.0473C58.3547 36.0473 53.7144 37.5288 51.0395 38.7195L49.4437 39.4299L47.9246 37.7015C45.0202 34.3969 40.4688 29.9171 36.7572 26.7098C36.3533 26.3609 36.2194 26.1534 36.3147 26.0242C36.3898 25.9223 37.0063 25.0132 37.6846 24.0039C41.376 18.5107 43.4774 11.6095 43.775 4.00225C43.8814 1.27997 43.8238 0.751377 43.3762 0.346206C43.0351 0.0374266 42.2118 -0.0889665 41.768 0.0992122ZM56.4709 0.222041C52.7392 1.55622 52.4098 6.64047 55.9429 8.37581C57.151 8.96931 58.6591 8.9705 59.8636 8.37893C61.4563 7.59651 62.2803 6.24391 62.2803 4.41188C62.2803 3.14661 61.972 2.30032 61.1841 1.40265C60.1195 0.18996 58.0269 -0.334327 56.4709 0.222041ZM19.7162 1.87184C19.3177 2.22799 19.2346 2.40979 19.2346 2.92665C19.2346 3.99854 20.3526 4.72006 21.2792 4.24598C22.6999 3.51925 22.179 1.44142 20.5763 1.44142C20.368 1.44142 19.981 1.63509 19.7162 1.87184ZM58.6272 3.13829C59.3546 3.5145 59.584 4.41069 59.1439 5.15598C58.5679 6.13118 57.1424 6.11811 56.6331 5.13296C55.9362 3.78481 57.2795 2.44112 58.6272 3.13829ZM27.4981 5.7572C25.952 6.53011 25.0968 7.90455 25.0942 9.62088C25.0921 11.017 25.4429 11.9107 26.3486 12.8166C28.1021 14.5706 30.8436 14.5706 32.5971 12.8166C33.5045 11.909 33.8529 11.0183 33.8529 9.60751C33.8529 7.16059 31.9613 5.30792 29.4595 5.3045C28.5806 5.30331 28.2567 5.37802 27.4981 5.7572ZM12.8787 6.89979C12.5449 7.24852 12.4809 7.46091 12.4426 8.34789L12.3979 9.3874L11.3587 9.43211C10.472 9.47042 10.2597 9.53444 9.91104 9.86832C9.46754 10.2934 9.35425 11.1349 9.66293 11.7118C9.89204 12.1401 10.6981 12.4321 11.6508 12.4321H12.4721V13.4387C12.4721 14.6086 12.6803 15.0041 13.4249 15.2501C13.8263 15.3825 14.0395 15.372 14.4519 15.1997C15.1113 14.924 15.2825 14.5966 15.3946 13.3966L15.4846 12.4321H16.2104C17.076 12.4321 17.8809 12.1257 18.1024 11.7118C18.4028 11.1502 18.296 10.3295 17.8638 9.87827C17.5048 9.5034 17.3657 9.46166 16.4748 9.46166H15.4847L15.3958 8.40017C15.3216 7.51408 15.2398 7.26842 14.9011 6.91494C14.3355 6.32441 13.4362 6.31772 12.8787 6.89979ZM30.4844 8.69008C30.9166 9.1413 31.0234 9.96204 30.723 10.5236C30.4624 11.0105 29.6192 11.2907 29.0151 11.0914C28.3634 10.8762 28.0623 10.4354 28.0623 9.69663C28.0623 8.8542 28.6378 8.27348 29.4728 8.27348C29.9502 8.27348 30.1735 8.36541 30.4844 8.69008ZM48.8179 11.5258C48.4193 11.882 48.3362 12.0638 48.3362 12.5806C48.3362 13.0975 48.4193 13.2793 48.8179 13.6355C49.3551 14.1156 49.8397 14.1755 50.4854 13.8416C51.8272 13.1474 51.222 11.0954 49.6755 11.0954C49.4686 11.0954 49.0826 11.2891 48.8179 11.5258ZM67.6316 15.1156C63.0388 15.9122 58.6553 17.8886 56.0271 20.3478C55.1622 21.157 55.0853 21.2796 55.0853 21.8473C55.0853 22.6104 55.3794 23.0529 56.0294 23.2673C56.7043 23.4901 57.1386 23.3045 58.2416 22.3215C60.5161 20.2949 64.2166 18.7158 68.3563 18.0053C69.0817 17.8808 69.8656 17.779 70.0986 17.779C70.3562 17.779 70.7109 17.6102 71.0037 17.3485C72.0552 16.4088 71.3455 14.7927 69.8935 14.8205C69.5477 14.8271 68.5299 14.96 67.6316 15.1156ZM73.9364 15.1621C73.2128 15.396 72.8074 16.2236 73.0526 16.9664C73.272 17.6316 73.7808 17.968 74.5679 17.968C75.0769 17.968 75.26 17.8832 75.6191 17.4812C75.9911 17.0647 76.0426 16.9082 75.9743 16.3993C75.8375 15.379 74.9437 14.8364 73.9364 15.1621ZM47.6225 21.3065C47.2887 21.6553 47.2247 21.8676 47.1864 22.7546L47.1417 23.7941L46.1025 23.8388C45.2158 23.8772 45.0035 23.9412 44.6548 24.2751C44.2113 24.7001 44.098 25.5417 44.4067 26.1185C44.6358 26.5469 45.4419 26.8389 46.3946 26.8389H47.2159V27.8454C47.2159 29.0153 47.4241 29.4108 48.1687 29.6568C48.57 29.7893 48.7833 29.7787 49.1957 29.6064C49.8551 29.3308 50.0263 29.0033 50.1384 27.8034L50.2284 26.8389H50.9542C51.8198 26.8389 52.6247 26.5325 52.8462 26.1185C53.1466 25.557 53.0398 24.7362 52.6076 24.285C52.2486 23.9101 52.1095 23.8684 51.2186 23.8684H50.2285L50.1396 22.8069C50.0654 21.9208 49.9836 21.6752 49.6449 21.3217C49.0793 20.7311 48.18 20.7245 47.6225 21.3065ZM26.6596 23.2523C27.835 23.8224 31.2654 26.0331 31.5999 26.4364C31.7388 26.6037 31.7131 26.7281 31.478 27.0269C31.2966 27.2577 31.1803 27.6299 31.1803 27.9803C31.1803 29.4468 32.7083 29.9342 33.8604 28.8352L34.239 28.474L35.7906 29.8268C39.2948 32.8823 44.0759 37.6625 46.1562 40.1906C46.6637 40.8073 46.6778 40.8528 46.4107 41.0075C46.2551 41.0977 45.9231 41.3482 45.6731 41.5646C45.3001 41.8871 45.2182 42.0702 45.2182 42.5823C45.2182 43.0992 45.3013 43.281 45.6998 43.6371C46.3135 44.1856 46.7735 44.1828 47.8336 43.6237L48.674 43.1807L49.6355 44.4781C51.0155 46.3402 52.1766 48.1677 52.7798 49.4267C53.6112 51.1619 53.535 51.2168 51.6386 50.2489C43.9395 46.319 29.6667 32.0358 25.7321 24.3233C24.7674 22.4326 24.8271 22.3639 26.6596 23.2523ZM65.2114 26.2534C63.6653 27.0263 62.8101 28.4007 62.8076 30.1171C62.8055 31.5132 63.1562 32.4068 64.0619 33.3128C66.1758 35.4272 69.7843 34.8795 71.1189 32.2417C71.6704 31.1517 71.7204 29.5034 71.2341 28.4451C70.717 27.3198 70.1991 26.7723 69.1609 26.2534C68.4007 25.8733 68.0782 25.7992 67.1862 25.7992C66.2941 25.7992 65.9716 25.8733 65.2114 26.2534ZM26.0489 30.4034C30.4276 36.8122 31.8347 44.2352 30.2083 52.3431C29.5765 55.4927 28.0031 59.7143 26.7049 61.7434C26.1676 62.5832 25.9633 62.702 23.2026 63.7794C23.0763 63.8287 23.1043 63.605 23.2939 63.054C23.8924 61.3139 24.0987 59.507 24.0093 56.7902C23.922 54.1425 23.6877 52.6788 22.9355 50.0824C22.1223 47.275 20.6063 43.6732 18.9587 40.6331L18.023 38.9068L18.785 37.0948C19.2041 36.0982 19.6 35.2818 19.6647 35.2808C19.8629 35.2773 21.4822 37.5383 22.1557 38.7587C23.2742 40.7856 23.2653 40.7743 23.8737 40.9567C24.3573 41.1017 24.5285 41.0894 24.9318 40.8807C25.5267 40.5729 25.8748 39.8223 25.7019 39.2196C25.3701 38.062 23.601 35.2732 21.8688 33.1771L20.9083 32.0149L21.2032 31.3205C21.3655 30.9387 21.9123 29.6402 22.4185 28.4349L23.3388 26.2437L24.1104 27.4695C24.5348 28.1438 25.4072 29.464 26.0489 30.4034ZM68.1978 29.1863C68.63 29.6375 68.7367 30.4582 68.4364 31.0198C68.1758 31.5066 67.3326 31.7869 66.7284 31.5876C66.0768 31.3724 65.7757 30.9316 65.7757 30.1928C65.7757 29.3504 66.3512 28.7697 67.1862 28.7697C67.6636 28.7697 67.8869 28.8616 68.1978 29.1863ZM40.0593 45.4042L41.6994 46.8152L41.7102 47.5578C41.7365 49.3642 40.9255 52.6566 40.0005 54.4994C39.4886 55.5191 38.428 57.0095 37.8949 57.4582C37.4655 57.8196 30.9205 60.6402 30.7973 60.5169C30.7601 60.4798 31.0028 59.7606 31.3364 58.9188C33.6317 53.1264 34.4124 46.2884 33.4133 40.7258C33.2519 39.8272 33.1178 39.0353 33.1151 38.9661C33.1126 38.8969 34.305 39.9996 35.7649 41.4167C37.2247 42.8338 39.1573 44.6282 40.0593 45.4042ZM24.4874 42.4223C23.7691 43.1409 23.9637 44.2957 24.876 44.7288C25.5025 45.0263 25.6611 45.0184 26.2472 44.661C26.8861 44.2713 27.0968 43.7187 26.8816 42.9961C26.5596 41.9148 25.2972 41.6123 24.4874 42.4223ZM64.2596 42.5672C63.861 42.9233 63.7779 43.1051 63.7779 43.622C63.7779 44.1388 63.861 44.3206 64.2596 44.6768C64.7967 45.157 65.2814 45.2168 65.9271 44.8829C67.2745 44.1859 66.672 42.1367 65.1197 42.1367C64.9114 42.1367 64.5243 42.3304 64.2596 42.5672ZM19.1103 48.0928C20.6322 52.2167 21.1515 54.9476 21.0424 58.2515C20.9594 60.7611 20.6925 61.9432 19.8147 63.6868C18.9712 65.3623 18.5339 65.7417 16.4089 66.6422C15.3848 67.0761 14.5211 67.4042 14.4895 67.3713C14.458 67.3383 14.5234 66.8436 14.6346 66.2717C14.7458 65.6999 14.8392 64.3966 14.8418 63.3755C14.8499 60.3682 14.3413 58.1169 12.8855 54.7165L12.1352 52.9639L13.7349 49.1469C14.6148 47.0477 15.6087 44.6688 15.9437 43.8606L16.5526 42.3912L17.519 44.3956C18.0506 45.4981 18.7666 47.1619 19.1103 48.0928ZM45.9842 50.2039C46.7025 50.7199 47.8437 51.4814 48.5203 51.8962L49.7505 52.6502L47.5552 53.5717C46.3478 54.0784 44.8308 54.7204 44.184 54.9981C43.5374 55.2758 42.9797 55.4744 42.9448 55.4395C42.9099 55.4046 43.0617 54.9252 43.2822 54.3741C43.711 53.302 44.2988 51.1261 44.4715 49.9713C44.5295 49.5832 44.5998 49.2658 44.6275 49.2658C44.6553 49.2658 45.2658 49.688 45.9842 50.2039ZM68.7139 53.7064C68.3154 54.0625 68.2322 54.2443 68.2322 54.7612C68.2322 55.2781 68.3154 55.4599 68.7139 55.816C69.2511 56.2962 69.7357 56.356 70.3814 56.0222C71.7232 55.328 71.118 53.276 69.5715 53.276C69.3647 53.276 68.9786 53.4696 68.7139 53.7064ZM11.0568 58.2144C11.7324 60.4069 11.9198 61.7722 11.8365 63.8954C11.7583 65.8887 11.5724 66.7524 10.8916 68.2882L10.5244 69.1164L7.46116 70.4013C5.77638 71.1078 4.37935 71.6673 4.35663 71.6446C4.27557 71.5635 10.4459 56.989 10.5614 56.989C10.6261 56.989 10.8491 57.5404 11.0568 58.2144ZM62.3074 59.4921C61.9687 59.8456 61.8869 60.0912 61.8126 60.9773L61.7237 62.0388H60.7512C59.898 62.0388 59.7274 62.0878 59.3622 62.4379C58.9106 62.8707 58.7948 63.7073 59.106 64.289C59.3276 64.7029 60.1325 65.0093 60.9981 65.0093H61.7238L61.8138 65.9738C61.9259 67.1737 62.0971 67.5012 62.7565 67.7769C63.1711 67.9502 63.3812 67.96 63.7892 67.8253C64.4799 67.5973 64.7264 67.1663 64.8356 65.9952L64.9277 65.0093H65.6535C66.5191 65.0093 67.324 64.7029 67.5455 64.289C67.8459 63.7274 67.7391 62.9067 67.3069 62.4554C66.9479 62.0806 66.8088 62.0388 65.9179 62.0388H64.9278L64.8389 60.9773C64.7647 60.0912 64.6829 59.8456 64.3442 59.4921C64.0263 59.1602 63.8055 59.0684 63.3258 59.0684C62.846 59.0684 62.6253 59.1602 62.3074 59.4921Z" fill="#6141B8"/>
</svg>
