<svg width="81" height="81" viewBox="0 0 81 81" fill="none" xmlns="http://www.w3.org/2000/svg">
<path fill-rule="evenodd" clip-rule="evenodd" d="M39.9562 1.06331C38.9478 1.48865 38.6811 2.77667 39.4456 3.52975C40.4064 4.47663 42.0063 3.82131 42.0063 2.4809C42.0063 1.45419 40.8783 0.674144 39.9562 1.06331ZM48.6596 4.63332C48.3985 4.79641 47.5974 5.53483 46.8793 6.27434C45.6761 7.51356 45.5738 7.66917 45.5738 8.26149C45.5738 9.10781 46.2739 9.80896 47.1189 9.80896C47.6201 9.80896 47.8612 9.63355 49.3392 8.19492C50.9261 6.65025 50.9973 6.5525 50.9973 5.91994C50.9973 4.70473 49.6942 3.98752 48.6596 4.63332ZM30.5609 4.83461C29.5315 5.77946 29.7784 6.5316 31.7273 8.38919C32.9306 9.53611 33.3078 9.80896 33.6911 9.80896C34.4151 9.80896 34.9298 9.50898 35.2123 8.92258C35.6275 8.06036 35.4208 7.65716 33.7201 6.01069C32.2859 4.62241 32.1199 4.50781 31.5423 4.50781C31.1261 4.50781 30.7978 4.61711 30.5609 4.83461ZM11.6015 5.20756C10.9648 5.47558 10.6022 6.15803 10.6022 7.08807C10.6022 8.73782 11.6908 9.60611 12.9529 8.96312C13.5372 8.66547 13.7671 8.11041 13.7671 6.99764C13.7671 6.202 13.7059 6.00788 13.3319 5.61669C12.7961 5.05632 12.2611 4.92988 11.6015 5.20756ZM68.078 5.21006C67.3653 5.51565 67.0295 6.33109 67.1477 7.46913C67.2205 8.17044 67.3259 8.40634 67.7223 8.75653C68.3848 9.34184 69.1157 9.33342 69.7682 8.73298C70.2331 8.30515 70.2597 8.21768 70.2597 7.11707C70.2597 6.06791 70.2187 5.91324 69.8425 5.54247C69.6131 5.31639 69.3339 5.13148 69.2224 5.13148C69.1108 5.13148 68.9247 5.09889 68.8089 5.05913C68.6929 5.01953 68.3641 5.08735 68.078 5.21006ZM39.9562 6.98813C39.7822 7.06156 39.4973 7.27735 39.3233 7.46772C39.0408 7.77659 39.0012 8.07439 38.9558 10.2332C38.9017 12.7997 39.0079 13.3702 39.6176 13.7911C40.0415 14.0836 40.9786 14.0836 41.4026 13.7911C42.0129 13.3698 42.1185 12.8002 42.0643 10.2204C42.015 7.86562 42.0009 7.77597 41.6178 7.39912C41.1782 6.96676 40.4398 6.78403 39.9562 6.98813ZM7.1774 9.49588C6.30454 9.84295 6.04202 11.177 6.69856 11.9291C6.99685 12.2709 7.23738 12.3654 7.95707 12.4243C9.0934 12.5171 9.58586 12.3908 10.0618 11.8848C10.7424 11.1612 10.4867 9.99014 9.54455 9.51537C9.14151 9.31237 7.66938 9.30021 7.1774 9.49588ZM14.4811 9.85386C14.0771 10.2519 13.9253 10.5377 13.9253 10.9004C13.9253 11.263 14.0771 11.5488 14.4811 11.9469C15.0277 12.4854 15.0552 12.4935 16.1444 12.4329C17.093 12.38 17.3135 12.3105 17.6817 11.9477C18.2813 11.3569 18.2813 10.4439 17.6817 9.85308C17.3135 9.49027 17.093 9.42073 16.1444 9.36787C15.0552 9.30722 15.0277 9.31533 14.4811 9.85386ZM63.5779 9.58428C63.0481 9.86759 62.8223 10.261 62.8223 10.9004C62.8223 11.9229 63.5302 12.4595 64.8794 12.4595C66.2286 12.4595 66.9366 11.9229 66.9366 10.9004C66.9366 10.248 66.706 9.86072 66.1485 9.57664C65.5633 9.27853 64.1419 9.28274 63.5779 9.58428ZM71.4465 9.48855C70.4428 9.89347 70.1712 11.196 70.9341 11.9477C71.3009 12.3089 71.5239 12.3802 72.4523 12.4318C73.4786 12.4888 73.5707 12.4658 74.0724 12.0242C74.5162 11.6333 74.6042 11.4476 74.6042 10.9004C74.6042 10.3578 74.5156 10.1669 74.0909 9.79306C73.647 9.40217 73.4555 9.34262 72.6703 9.35104C72.1712 9.35649 71.6206 9.41839 71.4465 9.48855ZM11.4414 12.8021C10.6722 13.1682 10.3367 14.9316 10.8501 15.9096C11.1393 16.4608 11.9196 16.8319 12.5425 16.7145C12.7828 16.6693 13.1566 16.4248 13.3732 16.1711C13.6951 15.7941 13.7671 15.5423 13.7671 14.7936C13.7671 14.2897 13.682 13.6935 13.578 13.4686C13.2428 12.7439 12.2285 12.4274 11.4414 12.8021ZM67.7223 13.0442C67.1049 13.5896 66.9141 14.85 67.3083 15.7795C67.7507 16.8227 69.0341 17.0547 69.8603 16.2408C70.216 15.8903 70.2597 15.7199 70.2597 14.6837C70.2597 13.5831 70.2331 13.4956 69.7682 13.0678C69.1157 12.4673 68.3848 12.4589 67.7223 13.0442ZM39.0381 17.4697C37.4645 17.6163 35.1882 18.3067 33.8639 19.0389C31.0168 20.6132 28.5398 23.4296 27.5071 26.267L27.1569 27.2289L26.1773 26.41C24.1766 24.7376 22.3684 24.0165 19.8594 23.8902C17.8494 23.789 16.3767 24.0839 14.6279 24.9375C12.2147 26.1153 10.2487 28.3538 9.38932 30.9021C8.96855 32.1494 8.95573 32.2952 8.89797 36.4706C8.83009 41.3625 8.94925 42.289 9.89918 44.26C10.6348 45.7862 11.5514 46.9432 12.7781 47.894L13.7671 48.6606V49.6538V50.647L13.1737 50.8006C12.8474 50.8849 11.4765 51.2095 10.1275 51.5218C6.94226 52.2592 5.26251 53.0306 3.66094 54.4916C1.80175 56.1876 0.733296 58.0249 0.249232 60.3582C0.0481057 61.3279 0 62.7052 0 67.4889V73.4178L0.461593 73.927L0.923187 74.4362L7.58251 74.4802L14.2418 74.524V77.1074V79.6906L14.7798 80.2207L15.3179 80.7508L24.3931 80.7485C31.305 80.7468 33.5626 80.7 33.8639 80.5523C34.0815 80.4458 34.39 80.096 34.5494 79.7751C34.8306 79.2094 34.8306 79.1739 34.5494 78.6082C34.087 77.6777 33.89 77.6373 29.7892 77.6348L26.11 77.6325V73.9529V70.2732L25.5519 69.7233C25.0583 69.237 24.9268 69.1843 24.4132 69.2663C24.0938 69.3175 23.6506 69.5383 23.4284 69.7572L23.0243 70.1551L22.9767 73.8938L22.9292 77.6325H20.1678H17.4067V73.5721C17.4067 68.7896 17.5542 67.8107 18.5921 65.7049C19.3914 64.0835 20.6418 62.5351 21.9196 61.5845C23.605 60.3308 24.7156 59.9175 29.4834 58.7696C31.9362 58.179 33.9911 57.7438 34.05 57.8025C34.1089 57.8611 35.2003 60.2552 36.4752 63.1228C37.7503 65.9902 38.9248 68.59 39.0853 68.8999C39.5497 69.7969 40.4558 70.0701 41.3127 69.5715C41.6852 69.3546 42.0491 68.6784 43.3062 65.8685C47.0066 57.5971 46.9317 57.7498 47.2518 57.8032C48.61 58.0299 55.585 59.7693 56.3384 60.0692C60.0619 61.5511 62.8659 65.0357 63.4456 68.9012C63.5291 69.4586 63.5999 71.6511 63.6029 73.7736L63.6081 77.6325H60.8496H58.091L58.0435 73.8938L57.9959 70.1551L57.5917 69.7572C57.3696 69.5383 56.9263 69.3175 56.607 69.2663C56.0933 69.1843 55.9618 69.237 55.4683 69.7233L54.9101 70.2732V73.9455V77.618L50.7034 77.6641L46.4969 77.7104L46.0353 78.2197C45.4305 78.8871 45.4305 79.4965 46.0356 80.1636L46.4973 80.6729H56.1595H65.8218L66.2604 80.241L66.6992 79.8091L66.7492 77.1616L66.7992 74.5142H73.3533H79.9074L80.4242 74.0594L80.941 73.6046L80.9865 67.6278C81.0246 62.6302 80.9904 61.4467 80.7777 60.4038C80.2952 58.0374 79.2339 56.2018 77.3592 54.4916C75.7576 53.0306 74.0779 52.2592 70.8926 51.5218C69.5436 51.2095 68.1729 50.8849 67.8465 50.8006L67.2531 50.647V49.6538V48.6606L68.2421 47.894C69.4688 46.9432 70.3853 45.7862 71.121 44.26C72.0709 42.289 72.1901 41.3625 72.1222 36.4706C72.0644 32.2952 72.0516 32.1494 71.6308 30.9021C70.7714 28.3538 68.8054 26.1153 66.3922 24.9375C64.6435 24.0839 63.1707 23.789 61.1607 23.8902C58.6845 24.0148 56.6355 24.8343 54.7614 26.4496C54.3365 26.816 53.9523 27.1157 53.9078 27.1157C53.8634 27.1157 53.742 26.8526 53.6382 26.531C53.5344 26.2095 53.1195 25.3148 52.7161 24.543C52.1211 23.4045 51.6841 22.8422 50.4002 21.5622C48.5493 19.7168 47.0404 18.7718 44.826 18.0706C43.5183 17.6565 42.9874 17.5622 40.9848 17.388C40.6802 17.3617 39.8042 17.3983 39.0381 17.4697ZM43.3513 20.8996C47.5884 22.0053 50.8061 25.7645 51.2138 30.0846C51.2699 30.6813 51.2641 31.1695 51.2005 31.1695C51.137 31.1695 49.7506 30.3977 48.1198 29.4544C44.3277 27.2611 44.4934 27.2724 42.538 29.0747C41.3638 30.1571 40.7867 30.5545 39.4942 31.171C37.3259 32.2052 36.1557 32.4168 32.6046 32.4168H29.7496V31.3188C29.7496 29.6618 30.1561 27.9955 30.9619 26.35C32.5123 23.1835 35.7831 20.9303 39.3233 20.5898C40.8199 20.4457 41.9436 20.5321 43.3513 20.8996ZM21.3857 27.266C23.3151 27.8535 24.9033 29.1775 25.7775 30.9272C26.0473 31.4674 26.2683 31.9525 26.2683 32.0052C26.2683 32.1861 24.1313 33.1604 22.7078 33.6287C20.4304 34.3778 18.707 34.5996 15.1634 34.5996H12.0264L12.0288 34.0149C12.0301 33.6934 12.1391 32.9789 12.2711 32.4274C13.2134 28.4882 17.4747 26.0751 21.3857 27.266ZM63.5288 27.1988C66.1105 27.8612 68.1441 29.8981 68.7491 32.4274C68.8811 32.9789 68.9901 33.6934 68.9913 34.0149L68.9937 34.5996H65.8567C62.3132 34.5996 60.5898 34.3778 58.3124 33.6287C56.8888 33.1604 54.7519 32.1861 54.7519 32.0052C54.7519 31.9525 54.9755 31.4617 55.2489 30.9146C56.7459 27.9185 60.2339 26.3531 63.5288 27.1988ZM48.1848 33.094L51.1914 34.8475L51.2346 37.5226C51.2878 40.804 51.088 41.9051 50.0703 43.9359C48.8417 46.3878 46.6678 48.2615 43.959 49.2035C42.2889 49.7843 39.8015 49.8846 38.0279 49.4427C34.2467 48.5005 31.4857 45.9636 30.2731 42.3175C29.9056 41.2131 29.8499 40.7529 29.7861 38.3026L29.7143 35.5351H32.6388C35.9798 35.5351 37.6834 35.3039 39.5342 34.5995C41.1161 33.9973 42.9404 32.9359 43.9207 32.0474C44.3513 31.6572 44.8103 31.3383 44.9409 31.3391C45.0714 31.3397 46.5312 32.1295 48.1848 33.094ZM26.5847 37.9306C26.5847 40.6974 26.4399 41.6291 25.8005 42.9753C24.6683 45.3594 21.9364 47.0793 19.2955 47.0706C17.4641 47.0647 15.4862 46.2339 14.1782 44.9214C12.6619 43.3998 12.0329 41.7139 12.0288 39.1602L12.0264 37.718L15.1517 37.717C19.5619 37.7158 22.3938 37.2335 25.3172 35.9859C25.8839 35.7441 26.4009 35.5439 26.4661 35.5407C26.5313 35.5376 26.5847 36.6131 26.5847 37.9306ZM55.6705 35.9775C58.6912 37.239 60.6558 37.5879 65.2355 37.6773L68.9937 37.7504L68.9913 39.1764C68.9872 41.7135 68.3551 43.4031 66.8419 44.9214C65.5339 46.2339 63.556 47.0647 61.7247 47.0706C58.3727 47.0817 55.2353 44.4822 54.597 41.1651C54.43 40.2976 54.3675 35.5351 54.5232 35.5351C54.5715 35.5351 55.0877 35.7342 55.6705 35.9775ZM34.6551 37.1111C33.6289 37.5078 33.3729 38.8173 34.1682 39.601C34.8065 40.2299 35.6114 40.2299 36.2497 39.601C37.0806 38.7822 36.7803 37.5051 35.6582 37.0848C35.1971 36.912 35.1681 36.9128 34.6551 37.1111ZM45.1328 37.1733C44.1153 37.6088 43.9439 38.9477 44.8135 39.6686C45.4754 40.2174 46.2525 40.1916 46.852 39.601C47.6829 38.7822 47.3825 37.5051 46.2605 37.0848C45.7731 36.9022 45.7644 36.9028 45.1328 37.1733ZM37.5343 42.6276C35.5576 44.2666 39.0019 46.9041 41.8238 45.9123C43.6251 45.2793 44.5043 43.8854 43.711 42.9204C43.0798 42.1527 42.3256 42.0597 41.3804 42.6334C40.5927 43.1114 40.2805 43.11 39.4815 42.6253C38.6775 42.1372 38.125 42.1379 37.5343 42.6276ZM28.8467 46.5662C29.8048 48.0178 30.8883 49.1605 32.2419 50.147L33.3892 50.9831V52.0683C33.3892 52.6653 33.3616 53.1537 33.3278 53.1537C33.2941 53.1537 32.7923 52.9351 32.2128 52.6678C31.6333 52.4006 29.8985 51.877 28.3577 51.5042C26.8169 51.1316 25.396 50.7875 25.2001 50.7398C24.877 50.661 24.8441 50.5605 24.8441 49.6529V48.6528L25.7904 47.9202C26.3108 47.5173 27.0316 46.811 27.3921 46.3507C27.7526 45.8905 28.071 45.5138 28.0996 45.5138C28.1284 45.5138 28.4645 45.9874 28.8467 46.5662ZM53.6281 46.3507C53.9885 46.811 54.7093 47.5173 55.2298 47.9202L56.1761 48.6528V49.6529C56.1761 50.5605 56.1432 50.661 55.82 50.7398C55.6241 50.7875 54.2033 51.1316 52.6625 51.5042C51.1217 51.877 49.3868 52.4006 48.8074 52.6678C48.2279 52.9351 47.7261 53.1537 47.6924 53.1537C47.6585 53.1537 47.631 52.6661 47.631 52.0702V50.9866L48.6539 50.2675C49.9065 49.3867 51.554 47.6579 52.3113 46.4295C52.6218 45.9258 52.8978 45.5138 52.9244 45.5138C52.9509 45.5138 53.2676 45.8905 53.6281 46.3507ZM19.3056 50.1777C19.8713 50.1777 20.6367 50.12 21.0067 50.0495L21.6792 49.9214V50.9906C21.6792 51.9631 21.5754 52.3066 20.532 54.7881C19.9011 56.2887 19.3466 57.5171 19.3 57.5179C19.2534 57.5187 18.7016 56.2943 18.0737 54.7972C17.0339 52.3178 16.9319 51.9788 16.9319 50.9981V49.9214L17.6045 50.0495C17.9744 50.12 18.7399 50.1777 19.3056 50.1777ZM61.7146 50.1777C62.2803 50.1777 63.0459 50.12 63.4157 50.0495L64.0882 49.9214V50.9906C64.0882 51.9631 63.9844 52.3066 62.941 54.7881C62.3099 56.2887 61.7556 57.5171 61.709 57.5179C61.6624 57.5187 61.1106 56.2943 60.4827 54.7972C59.4428 52.3178 59.3409 51.9788 59.3409 50.9981V49.9214L60.0135 50.0495C60.3833 50.12 61.1489 50.1777 61.7146 50.1777ZM37.8991 52.6053C39.2973 52.897 41.8602 52.8984 43.2002 52.6079C43.7659 52.4854 44.2821 52.3825 44.3475 52.3795C44.4128 52.3766 44.4661 53.0815 44.4661 53.9462V55.5183L42.5305 59.871C41.466 62.2649 40.5557 64.2237 40.5077 64.2237C40.4596 64.2237 39.5505 62.2738 38.4873 59.8908L36.554 55.5579V53.966C36.554 53.0904 36.6075 52.3741 36.6727 52.3741C36.7381 52.3741 37.29 52.4781 37.8991 52.6053ZM14.2888 53.9722C14.3333 54.0795 15.053 55.7755 15.8882 57.7415C16.7234 59.7074 17.4067 61.3746 17.4067 61.4464C17.4067 61.5179 17.1206 61.9896 16.771 62.4943C15.3011 64.616 14.4494 67.1228 14.2896 69.7977L14.1942 71.3958H11.8443H9.49455V67.802C9.49455 63.9953 9.41258 63.5063 8.71204 63.137C8.32118 62.9308 7.50307 62.9308 7.11221 63.137C6.41167 63.5063 6.3297 63.9953 6.3297 67.802V71.3958H4.74727H3.16485V66.6691C3.16485 61.4799 3.2598 60.6096 3.99341 59.0785C4.59362 57.8255 6.19773 56.2247 7.47917 55.5997C7.97352 55.3586 9.60833 54.8569 11.1121 54.4849C14.273 53.7028 14.1831 53.7173 14.2888 53.9722ZM27.3926 54.4746C28.974 54.858 30.2992 55.2024 30.3373 55.2398C30.4277 55.329 30.2955 55.3655 27.1699 56.114C25.7074 56.4642 24.1587 56.8875 23.7281 57.0548C23.2974 57.222 22.9452 57.3208 22.9452 57.2744C22.9452 57.2279 23.2021 56.5799 23.5163 55.8343C23.8304 55.0889 24.1491 54.3212 24.2246 54.1281C24.2999 53.9351 24.3966 53.7773 24.4393 53.7773C24.482 53.7773 25.8109 54.091 27.3926 54.4746ZM57.3561 55.5092C57.7617 56.4619 58.0688 57.2655 58.0389 57.2951C58.0089 57.3246 57.524 57.1847 56.9614 56.9842C56.3991 56.7837 54.835 56.3607 53.486 56.0443C50.6286 55.3741 50.5651 55.356 50.6783 55.2443C50.762 55.162 56.0737 53.8227 56.4369 53.7924C56.5369 53.7842 56.9505 54.5567 57.3561 55.5092ZM70.0684 54.5474C71.4862 54.8862 73.0498 55.3602 73.543 55.6008C74.8226 56.2247 76.4269 57.8263 77.0267 59.0785C77.7604 60.6096 77.8553 61.4799 77.8553 66.6691V71.3958H76.2729H74.6905V67.802C74.6905 63.9953 74.6085 63.5063 73.9079 63.137C73.5171 62.9308 72.699 62.9308 72.3081 63.137C71.6076 63.5063 71.5256 63.9953 71.5256 67.802V71.3958H69.1757H66.826L66.7215 69.8757C66.5373 67.1945 65.7249 64.7385 64.3465 62.6954C63.9433 62.0979 63.6135 61.5385 63.6135 61.4521C63.6135 61.3658 64.2624 59.7615 65.0554 57.8871C65.8485 56.0125 66.5595 54.3194 66.6353 54.1245C66.7389 53.8584 66.8625 53.7903 67.1319 53.8508C67.329 53.8952 68.6505 54.2086 70.0684 54.5474ZM39.798 77.8056C38.2417 78.6874 38.9995 81.0062 40.7387 80.6847C42.4454 80.3693 42.3811 77.9431 40.6598 77.7025C40.3599 77.6606 39.9721 77.707 39.798 77.8056Z" fill="url(#paint0_linear_360_227)"/>
<defs>
<linearGradient id="paint0_linear_360_227" x1="40.5" y1="0.961426" x2="40.5" y2="80.7508" gradientUnits="userSpaceOnUse">
<stop stop-color="#EC5128"/>
<stop offset="1" stop-color="#FDB71B"/>
</linearGradient>
</defs>
</svg>
