<svg width="87" height="74" viewBox="0 0 87 74" fill="none" xmlns="http://www.w3.org/2000/svg">
<path fill-rule="evenodd" clip-rule="evenodd" d="M9.05876 0.980841C4.80149 1.60313 1.43323 4.59788 0.358036 8.71695C0.0110584 10.0465 0 10.7601 0 31.7007C0 46.2606 0.0632681 53.6565 0.193793 54.3666C0.726767 57.2661 3.07784 60.304 5.80108 61.6118C8.28612 62.8051 7.98066 62.7864 25.1531 62.79L40.6076 62.793V65.4577V68.1224H35.9791C30.887 68.1224 30.5324 68.1813 29.684 69.1692C29.1216 69.8242 28.913 70.6922 29.0923 71.6293C29.2505 72.456 30.3881 73.5693 31.2249 73.7168C31.5496 73.774 37.2402 73.7576 43.8707 73.6805L55.9261 73.5404L56.593 73.1341C57.3283 72.6861 58.0108 71.5136 58.0108 70.6982C58.0108 69.999 57.3838 68.8182 56.7845 68.3888C56.3222 68.0575 55.9553 68.03 51.3487 67.9811L46.4087 67.9287V65.3609V62.793L61.8631 62.79C79.0097 62.7864 78.7397 62.8028 81.1782 61.6268C83.5661 60.4754 85.365 58.4632 86.4501 55.7302L86.9256 54.5325L86.9771 32.4156C87.034 7.85519 87.083 8.96512 85.8347 6.52303C84.6054 4.11824 82.4118 2.28263 79.6743 1.36811L78.224 0.883491L44.1426 0.858976C25.3979 0.845475 9.61022 0.900367 9.05876 0.980841ZM78.5376 7.06805C79.1088 7.34286 79.8204 7.85804 80.1188 8.21279C81.2732 9.58511 81.2152 8.33874 81.2152 31.7938C81.2152 55.954 81.3236 54.1767 79.7569 55.712C78.2106 57.2272 81.2951 57.1083 43.5081 57.1083C5.72114 57.1083 8.80568 57.2272 7.25933 55.712C5.69268 54.1767 5.80108 55.9551 5.80108 31.7846C5.80108 13.1362 5.83589 10.3353 6.07664 9.667C6.61904 8.16021 7.74916 7.16344 9.41788 6.72004C10.06 6.5495 17.6839 6.50846 43.8707 6.53458L77.4989 6.56815L78.5376 7.06805Z" fill="white"/>
</svg>
