<svg width="66" height="76" viewBox="0 0 66 76" fill="none" xmlns="http://www.w3.org/2000/svg">
<path fill-rule="evenodd" clip-rule="evenodd" d="M13.0867 1.04932C8.05735 1.92197 3.8683 4.98341 1.65678 9.403C-1.72868 16.1683 0.186282 23.9312 6.37697 28.5386C8.49537 30.1153 11.6789 31.2793 14.4928 31.5064L15.7971 31.6115L32.831 46.2127L49.8647 60.814L51.9665 58.7795L54.0683 56.7451L57.3662 60.0059C59.6335 62.2475 60.7677 63.4786 60.9955 63.9451C61.9523 65.9039 61.5811 68.1583 60.0361 69.7733C58.7928 71.0729 56.9693 71.6326 55.1924 71.2601C54.6689 71.1504 52.3176 70.0115 48.2408 67.8931C40.5706 63.9076 39.6355 63.4501 37.5904 62.6828C34.8746 61.6639 32.7898 61.1187 29.6553 60.6076C27.1321 60.1963 20.7803 60.2297 18.1988 60.6679C14.681 61.2651 11.6946 62.1446 8.67905 63.4716C6.85062 64.2762 1.28717 67.1753 1.28717 67.3236C1.28717 67.486 3.23567 71.0972 3.32339 71.0972C3.35872 71.0972 4.25662 70.6386 5.31844 70.0782C10.4494 67.3704 12.6462 66.453 16.0112 65.6131C22.0254 64.1119 28.6333 64.3539 34.5954 66.2934C36.9478 67.0586 38.4747 67.7811 45.8187 71.6028C49.192 73.3583 52.2297 74.911 52.5688 75.0531C53.8075 75.5723 55.4387 75.828 56.8894 75.7304C59.4547 75.5578 61.3416 74.7308 63.1272 72.9965C65.0483 71.1307 66.0144 68.7941 65.9998 66.0475C65.9906 64.265 65.5322 62.7074 64.5964 61.2791C64.2195 60.7036 62.6672 59.0475 60.5936 57.0081L57.2063 53.6772L59.2744 51.6512L61.3424 49.6253L46.3597 32.8992L31.3768 16.173V15.4022C31.3768 14.9783 31.275 14.1064 31.1505 13.4647C29.9952 7.51031 25.5303 2.82843 19.5814 1.33342C17.7672 0.877486 14.8203 0.748536 13.0867 1.04932ZM18.5775 5.59333C19.6426 5.87421 21.424 6.65274 21.6731 6.94635C21.8176 7.11643 20.4544 8.51835 14.1512 14.6822C9.91722 18.8225 6.40406 22.2102 6.34433 22.2102C6.1364 22.2102 5.0397 19.7878 4.78715 18.7706C4.42428 17.3086 4.45692 14.8605 4.85901 13.3861C5.82203 9.85542 8.71662 6.89659 12.3295 5.7495C12.7629 5.61191 13.4365 5.44257 13.8265 5.37304C14.8446 5.19184 17.5262 5.3161 18.5775 5.59333ZM25.8149 11.4984C26.3884 12.7149 26.8858 14.5568 26.8858 15.4634V16.1345L21.2354 21.6606C16.7917 26.0064 15.5049 27.1863 15.21 27.1848C14.2386 27.1799 11.969 26.5806 10.7671 26.0118L9.47665 25.4012L17.2384 17.8111C22.6607 12.5088 25.052 10.2632 25.1722 10.3608C25.267 10.4377 25.556 10.9497 25.8149 11.4984ZM32.0324 23.5641L34.9541 26.8208L30.8084 30.8828C28.5283 33.1169 26.6144 34.9282 26.5553 34.908C26.4373 34.8674 23.2441 32.175 21.148 30.3486L19.8212 29.1926L24.3631 24.75C26.8611 22.3065 28.9512 20.3074 29.0078 20.3074C29.0644 20.3074 30.4255 21.7729 32.0324 23.5641ZM46.6598 39.8969L55.2268 49.4602L52.471 52.1434L49.715 54.8268L39.8687 46.3903L30.0223 37.9539L33.9548 34.1069C36.1175 31.9911 37.9335 30.2766 37.99 30.2968C38.0466 30.3171 41.948 34.6372 46.6598 39.8969Z" fill="url(#paint0_linear_360_236)"/>
<defs>
<linearGradient id="paint0_linear_360_236" x1="33" y1="0.886719" x2="33" y2="75.7508" gradientUnits="userSpaceOnUse">
<stop stop-color="#EC5128"/>
<stop offset="1" stop-color="#FDB71B"/>
</linearGradient>
</defs>
</svg>
