<svg width="92" height="70" viewBox="0 0 92 70" fill="none" xmlns="http://www.w3.org/2000/svg">
<path fill-rule="evenodd" clip-rule="evenodd" d="M44.3816 0.899569C42.2985 1.2974 40.1823 2.43772 38.7973 3.90888C37.016 5.80091 36.301 7.60274 36.1631 10.5463L36.0673 12.5952L34.7874 12.9154C29.3747 14.2698 23.0801 17.5972 18.3782 21.5894C12.013 26.9939 7.35928 34.3084 5.21038 42.2859C4.59425 44.5729 3.94145 48.3174 3.94145 49.5649V50.4067H3.03559C1.77512 50.4067 0.811923 50.9255 0.324843 51.8668C-0.0168315 52.5268 -0.0490039 52.799 0.0467944 54.2125C0.534054 61.4083 5.65073 67.4408 12.9282 69.3996L14.4559 69.8107H45.8195H77.1831L78.6447 69.4258C85.4759 67.6268 90.2902 62.726 91.6708 56.1659C92.1165 54.0481 92.1099 52.7098 91.6494 51.8197C91.1878 50.9278 90.197 50.4067 88.9629 50.4067H88.057V49.6762C88.057 48.4609 87.5401 45.3108 86.9556 42.964C85.546 37.3051 82.7326 31.7086 78.8937 26.9269C74.9774 22.0491 68.5695 17.2479 62.7303 14.8164C60.5649 13.9148 57.7265 12.9611 56.5827 12.7508L55.9326 12.6313L55.8397 10.5644C55.6993 7.4452 54.8098 5.39227 52.7792 3.50078C50.9423 1.78985 48.987 0.979844 46.4486 0.878482C45.5589 0.842863 44.6288 0.852432 44.3816 0.899569ZM47.5277 6.39863C49.2508 6.97756 50.4926 8.77903 50.4926 10.6998V11.51H45.9992H41.5059V10.6998C41.5059 7.51697 44.497 5.38058 47.5277 6.39863ZM51.7507 17.1765C66.0648 19.523 77.7498 29.8304 81.5057 43.4233C82.0516 45.3987 82.665 48.7301 82.665 49.7193V50.4067H45.9992H9.33348L9.3342 49.7421C9.33528 48.6779 9.83961 45.8714 10.4113 43.7469C12.4819 36.0528 17.2567 29.0252 23.6989 24.1901C28.8727 20.307 35.0732 17.8213 41.6535 16.9925C44.0565 16.6899 49.3732 16.7868 51.7507 17.1765ZM86.1713 56.1216C86.1093 56.3409 85.7347 57.1807 85.3387 57.9879C84.0173 60.6821 81.399 62.9201 78.3336 63.975L76.8237 64.4945L46.4067 64.5419C19.9597 64.583 15.8194 64.5544 14.6836 64.3237C11.3589 63.648 8.13214 61.1845 6.66784 58.2037C6.26074 57.3753 5.87647 56.4781 5.81374 56.2102L5.69979 55.7229H45.9919H86.284L86.1713 56.1216Z" fill="url(#paint0_linear_360_240)"/>
<defs>
<linearGradient id="paint0_linear_360_240" x1="46" y1="0.856934" x2="46" y2="69.8107" gradientUnits="userSpaceOnUse">
<stop stop-color="#EC5128"/>
<stop offset="1" stop-color="#FDB71B"/>
</linearGradient>
</defs>
</svg>
