<svg width="80" height="80" viewBox="0 0 80 80" fill="none" xmlns="http://www.w3.org/2000/svg">
<path fill-rule="evenodd" clip-rule="evenodd" d="M38.9919 1.0106C38.3602 1.29302 37.7053 2.07908 37.5881 2.69525C37.5362 2.96842 37.5159 4.52233 37.5428 6.14855C37.5966 9.38434 37.6307 9.50967 38.6689 10.2735C39.2746 10.7192 40.7584 10.7192 41.3641 10.2735C42.4301 9.48917 42.4411 9.44323 42.4411 5.73541C42.4411 2.57331 42.4212 2.34037 42.1185 1.9408C41.9412 1.70663 41.612 1.37966 41.3873 1.21425C40.8695 0.833321 39.6251 0.727568 38.9919 1.0106ZM12.7348 11.7491C12.0747 11.9508 11.2527 12.803 11.0686 13.4765C10.7431 14.6678 11.0245 15.1385 13.5542 17.6329C15.49 19.5417 15.9427 19.9123 16.4503 20.0037C18.216 20.3216 19.7814 18.7778 19.453 17.0423C19.3596 16.549 18.9817 16.0913 17.2036 14.3171C16.0282 13.1444 14.888 12.0924 14.67 11.9794C14.1062 11.6873 13.2651 11.5873 12.7348 11.7491ZM65.7502 11.821C65.3054 11.9807 64.488 12.6786 62.9084 14.2473C61.0528 16.0901 60.6727 16.5462 60.5793 17.0423C60.2526 18.7798 61.8209 20.3253 63.5827 20.0015C64.0833 19.9095 64.5477 19.5371 66.348 17.7847C67.538 16.6264 68.6239 15.4705 68.7609 15.2162C68.8981 14.9618 69.0115 14.4306 69.0129 14.0358C69.0188 12.3853 67.3443 11.2487 65.7502 11.821ZM32.7349 17.0493C31.2677 17.6866 30.808 19.6482 31.8421 20.8594C32.5033 21.6338 33.0282 21.7679 35.3969 21.7679H37.5137V23.6617V25.5556L35.9885 25.756C26.1409 27.0494 17.4625 33.2262 13.1101 42.0397C11.0837 46.143 10.2328 49.4515 10.0343 53.9997L9.93621 56.2478L9.27734 56.4214C7.59983 56.8635 6.93595 59.0012 8.06535 60.324C8.79742 61.1813 9.10339 61.2325 13.4972 61.2325H17.4911V63.0824V64.9323H12.8611C8.91772 64.9323 8.15185 64.9693 7.69728 65.1819C6.64281 65.675 6.50203 65.9968 5.35652 70.5321L4.28594 74.7702L2.92206 74.8228C1.84444 74.8644 1.46745 74.9423 1.12628 75.1934C0.305672 75.7975 0.0496026 76.2902 0.0496026 77.265C0.0496026 78.2399 0.305829 78.7326 1.1266 79.3366L1.55865 79.6544H40.0165H78.4743L78.9064 79.3366C79.7271 78.7326 79.9834 78.2399 79.9834 77.265C79.9834 76.2902 79.7273 75.7975 78.9067 75.1934C78.5655 74.9423 78.1885 74.8644 77.1109 74.8228L75.747 74.7702L74.6765 70.5321C73.8225 67.1517 73.5247 66.1989 73.2042 65.8235C72.4757 64.9704 72.2181 64.9323 67.1614 64.9323H62.5419V63.0824V61.2325H66.5357C70.9296 61.2325 71.2356 61.1813 71.9676 60.324C73.097 59.0012 72.4332 56.8635 70.7556 56.4214L70.0968 56.2478L69.9987 53.9997C69.803 49.516 68.9484 46.1504 67.0013 42.1939C64.0478 36.193 59.4158 31.5779 53.3909 28.6332C52.1004 28.0025 50.3836 27.2686 49.5757 27.0024C47.9033 26.4511 45.1321 25.8431 43.5749 25.6858L42.5193 25.5793V23.6847V21.7901L44.8549 21.7405C46.9235 21.6965 47.2396 21.6544 47.6218 21.3729C48.4422 20.7683 48.6981 20.276 48.6981 19.3014C48.6981 18.3265 48.4421 17.8339 47.6213 17.2298C47.2021 16.9212 46.9867 16.9108 40.2008 16.8769C34.629 16.8492 33.1153 16.884 32.7349 17.0493ZM44.7507 30.8583C50.1668 31.9046 55.3438 34.8413 58.8399 38.8507C62.677 43.2511 64.7417 48.3902 64.9987 54.1797L65.0927 56.2994H40.0165H14.9403L15.0343 54.1797C15.4102 45.7092 19.7092 38.5075 27.1091 33.9518C29.7965 32.2974 33.6495 30.99 37.1143 30.5569C38.903 30.3334 42.837 30.4886 44.7507 30.8583ZM1.44962 38.0127C-0.0588008 38.6745 -0.482246 40.6505 0.619307 41.887C1.319 42.6723 1.83489 42.7623 5.31804 42.706C8.68839 42.6516 8.80431 42.6215 9.5819 41.595C10.0341 40.9981 10.0341 39.5357 9.5819 38.9388C8.79695 37.9027 8.70983 37.881 5.16161 37.8405C2.70869 37.8124 1.81143 37.854 1.44962 38.0127ZM71.5285 38.0127C70.0201 38.6745 69.5967 40.6505 70.6982 41.887C71.3979 42.6723 71.9138 42.7623 75.397 42.706C78.7673 42.6516 78.8832 42.6215 79.6608 41.595C80.1131 40.9981 80.1131 39.5357 79.6608 38.9388C78.8759 37.9027 78.7887 37.881 75.2405 37.8405C72.7876 37.8124 71.8904 37.854 71.5285 38.0127ZM57.5362 63.0824V64.9323H40.0165H22.4968V63.0824V61.2325H40.0165H57.5362V63.0824ZM69.9414 72.2163C70.2631 73.5092 70.5248 74.6192 70.5229 74.6828C70.5185 74.8341 9.51448 74.8341 9.5101 74.6828C9.50822 74.6192 9.76993 73.5092 10.0915 72.2163L10.6764 69.8654H40.0165H69.3566L69.9414 72.2163Z" fill="url(#paint0_linear_360_244)"/>
<defs>
<linearGradient id="paint0_linear_360_244" x1="40" y1="0.850098" x2="40" y2="79.6544" gradientUnits="userSpaceOnUse">
<stop stop-color="#EC5128"/>
<stop offset="1" stop-color="#FDB71B"/>
</linearGradient>
</defs>
</svg>
