<svg width="81" height="83" viewBox="0 0 81 83" fill="none" xmlns="http://www.w3.org/2000/svg">
<path fill-rule="evenodd" clip-rule="evenodd" d="M77.5863 1.03903C76.9709 1.31504 76.2713 2.12197 75.8327 3.06162C75.5604 3.64515 75.4967 4.09867 75.4964 5.46034C75.4962 6.38384 75.5515 7.33917 75.6194 7.5832C75.7375 8.00777 75.7233 8.02184 75.2939 7.9051C75.0471 7.83794 74.081 7.78325 73.1471 7.78341C71.7596 7.78373 71.3124 7.84594 70.7016 8.12323C68.2449 9.23863 67.2463 11.7131 67.9026 15.0592L67.9818 15.463L65.8342 15.459C63.8071 15.4551 63.635 15.4801 62.7677 15.9011C61.7717 16.3849 61.066 17.0791 60.4936 18.138C60.1655 18.7452 60.1288 19.0356 60.1288 21.0224V23.2314L59.5743 23.1286C58.7157 22.9692 56.6088 23.0069 55.9055 23.1942C54.348 23.609 52.9889 24.9241 52.5264 26.4643C52.264 27.3382 52.2205 29.1228 52.4349 30.2195C52.5628 30.8745 52.5517 30.9072 52.2256 30.828C51.1229 30.5597 49.3948 30.543 48.4012 30.7912C46.5699 31.2484 45.497 32.2293 45.3799 33.5534C45.2881 34.5924 45.6989 35.3313 46.6312 35.8041C47.55 36.27 47.9697 36.2576 49.018 35.7332C49.8595 35.312 49.9048 35.307 51.0417 35.5053C54.235 36.0626 54.909 36.0617 56.0452 35.4986C56.3787 35.3333 56.85 34.9017 57.0924 34.5393C57.654 33.7001 57.7564 32.3077 57.3945 30.4293C57.0652 28.7195 57.0607 27.8672 57.3804 27.746C57.5141 27.6951 58.5391 27.8143 59.6579 28.0108C61.8851 28.4018 62.7344 28.3695 63.7544 27.8549C64.767 27.344 65.3846 26.2249 65.3846 24.9003C65.3846 24.5365 65.2342 23.4245 65.0504 22.429C64.8665 21.4335 64.7551 20.5187 64.8026 20.3958C64.92 20.0934 66.0017 20.1074 67.5861 20.4313C70.1264 20.9507 71.9323 20.4724 72.6393 19.0929C73.1397 18.1167 73.195 17.3164 72.8811 15.5944C72.7227 14.7262 72.5906 13.6919 72.5872 13.2961C72.5812 12.5981 72.5971 12.5751 73.1123 12.526C73.4044 12.4982 74.1945 12.5882 74.8681 12.7259C76.5568 13.0713 78.2292 13.0473 79.0796 12.6656C80.1425 12.1882 80.6537 11.2879 80.7236 9.7705C80.7571 9.04113 80.6749 8.03639 80.5214 7.30303C80.1734 5.63928 80.1931 5.06055 80.6172 4.49349C81.0908 3.86007 81.106 2.59867 80.6477 1.99148C79.8822 0.977621 78.6077 0.581034 77.5863 1.03903ZM44.6719 2.94553C44.3346 3.17036 44.0053 3.59798 43.8092 4.06588C43.5302 4.73145 43.5157 4.91391 43.6876 5.58123C44.0739 7.07995 44.2043 9.00212 44.0333 10.6823C43.5755 15.1855 41.7683 18.8715 37.9877 23.0136C36.8475 24.2629 36.6739 24.6443 36.805 25.6118C36.9234 26.4846 37.4498 27.1372 38.292 27.4553C39.5473 27.9292 40.0221 27.7305 41.6929 26.0311C46.7672 20.8705 49.4887 13.8414 48.8826 7.46198C48.6961 5.49856 48.4015 4.20485 48.0043 3.60549C47.3233 2.57788 45.7048 2.25725 44.6719 2.94553ZM57.5049 7.70777C55.4255 8.14338 54.9415 10.9193 56.7518 12.0279C57.7208 12.6213 59.2901 12.3251 59.9562 11.4231C60.4309 10.78 60.4917 9.44748 60.0764 8.78815C59.5232 7.91022 58.5304 7.49301 57.5049 7.70777ZM32.7011 11.4203C30.7188 12.7299 31.631 15.7318 34.0113 15.7318C35.3075 15.7318 36.2502 14.882 36.3829 13.5942C36.5257 12.207 35.4511 11.0573 34.0113 11.0573C33.4896 11.0573 33.0779 11.1714 32.7011 11.4203ZM21.6714 23.9885C21.4219 24.1511 21.1174 24.426 20.9946 24.5993C20.8719 24.7727 16.1006 37.2143 10.3919 52.2475C2.23228 73.7351 0.00995343 79.7432 0.00041207 80.3408C-0.0126871 81.164 0.285198 81.7002 1.08311 82.2892C2.10032 83.0401 1.06759 83.3857 30.777 72.3553C55.5688 63.1507 58.4094 62.061 58.9392 61.5512C59.6755 60.8431 59.8644 59.9954 59.4871 59.0919C59.2977 58.6384 54.6373 53.9265 42.1322 41.545C32.7292 32.2352 24.7522 24.4094 24.4053 24.1543C23.6326 23.5863 22.4027 23.5116 21.6714 23.9885ZM74.6834 24.6523C73.5346 24.8955 72.7967 25.799 72.7967 26.9621C72.7967 28.3413 73.7708 29.2883 75.1877 29.2864C76.591 29.2847 77.5114 28.3668 77.5114 26.9688C77.5114 25.4163 76.1892 24.3332 74.6834 24.6523ZM34.0953 42.1606C34.9978 49.0473 37.7748 56.1031 41.7262 61.549C42.197 62.198 42.5824 62.7521 42.5824 62.7803C42.5824 62.9271 32.3872 66.5792 32.1881 66.5036C31.7824 66.3496 29.3419 63.3505 28.0173 61.3782C24.638 56.3465 22.5643 50.8491 21.7028 44.6393C21.5869 43.8038 21.4889 41.6809 21.4851 39.9218L21.4782 36.7236L22.6812 33.5558L23.8841 30.3879L28.864 35.3149L33.8438 40.2417L34.0953 42.1606ZM71.5299 34.3448C67.9931 34.9933 66.3378 35.52 63.7521 36.8203C61.6244 37.8901 59.6443 39.2428 57.5779 41.0385C55.9864 42.4213 55.6545 42.9218 55.6545 43.9398C55.6545 45.291 56.6412 46.2652 58.0095 46.2652C58.9318 46.2652 59.164 46.1323 60.7187 44.7167C63.0769 42.5694 66.1585 40.7438 68.9203 39.8577C71.5241 39.0223 74.7625 38.8101 77.3697 39.3041C78.9772 39.6086 79.396 39.5432 80.1767 38.8654C81.2684 37.9176 81.2754 36.3351 80.1919 35.3945C79.3493 34.6629 77.8078 34.3648 74.6026 34.3135C73.135 34.29 71.7523 34.3041 71.5299 34.3448ZM52.6456 59.0471C52.4865 59.1881 47.7056 60.9506 47.4821 60.9506C47.3846 60.9506 46.8314 60.321 46.2529 59.5513C43.3185 55.6476 41.1627 51.2198 39.888 46.4783C39.8408 46.3024 42.7184 49.035 46.2827 52.5507C49.8471 56.0665 52.7103 58.9898 52.6456 59.0471ZM17.6835 49.6817C18.9484 55.5154 22.1364 62.06 26.0776 66.9141C26.7054 67.6874 27.2182 68.371 27.2169 68.4333C27.2156 68.4955 24.993 69.3657 22.2777 70.3669C17.9804 71.9517 17.3156 72.1562 17.1454 71.9456C14.5976 68.7923 13.5896 67.3267 12.2224 64.7885L11.4041 63.2693L14.0505 56.313C15.5061 52.4871 16.8162 49.0465 16.9619 48.6674C17.1076 48.2882 17.2518 48.0028 17.2824 48.033C17.313 48.0631 17.4935 48.8051 17.6835 49.6817ZM70.883 48.4966C69.2133 49.153 68.819 51.2935 70.1542 52.4526C71.7946 53.8769 74.1174 52.7823 74.1174 50.5849C74.1174 49.0435 72.367 47.9132 70.883 48.4966ZM10.0856 70.6271C10.548 71.3298 11.2869 72.3604 11.7279 72.9176C12.1689 73.4747 12.5054 73.9509 12.4758 73.9759C12.3576 74.076 6.6378 76.1526 6.60029 76.1091C6.54482 76.0449 9.14039 69.2459 9.19845 69.3035C9.22416 69.3288 9.62344 69.9245 10.0856 70.6271Z" fill="url(#paint0_linear_360_248)"/>
<defs>
<linearGradient id="paint0_linear_360_248" x1="40.5" y1="0.850098" x2="40.5" y2="82.6096" gradientUnits="userSpaceOnUse">
<stop stop-color="#EC5128"/>
<stop offset="1" stop-color="#FDB71B"/>
</linearGradient>
</defs>
</svg>
