<svg width="92" height="77" viewBox="0 0 92 77" fill="none" xmlns="http://www.w3.org/2000/svg">
<path fill-rule="evenodd" clip-rule="evenodd" d="M11.8441 1.12972C9.99199 1.7149 8.67699 2.85068 7.84989 4.57977C7.41041 5.49859 7.378 5.75067 7.32219 8.68261L7.26278 11.8066L6.40309 12.0864C3.79757 12.935 1.3962 15.3658 0.41625 18.1469L0 19.3279V44.13V68.9321L0.411209 70.0987C1.44229 73.0229 3.74499 75.2842 6.71726 76.2911L7.92172 76.6993H46H84.0783L85.2827 76.2911C88.255 75.2842 90.5577 73.0229 91.5888 70.0987L92 68.9321V44.13V19.3279L91.5837 18.1469C90.5653 15.2565 88.3693 13.0871 85.3242 11.9634C84.2808 11.5784 84.0457 11.568 74.1956 11.477L64.133 11.3842L63.1232 8.46866C61.988 5.1909 61.5325 4.32963 60.309 3.14742C59.2804 2.15375 58.1255 1.51402 56.706 1.15143C55.1327 0.749654 36.8673 0.749654 35.294 1.15143C33.2372 1.6766 31.4215 3.00179 30.3749 4.74146C30.1063 5.1879 29.4323 6.86509 28.877 8.46866L27.8674 11.3842L25.6964 11.4336L23.5257 11.483L23.4654 8.52091C23.409 5.75473 23.3738 5.49312 22.9307 4.5667C22.2636 3.17196 21.3111 2.2143 19.9248 1.54456C18.7352 0.969959 18.7291 0.969077 15.6681 0.929535C13.4808 0.901291 12.3854 0.958662 11.8441 1.12972ZM17.8111 6.45396C18.0401 6.67867 18.0939 7.18231 18.0939 9.10186V11.4724H15.3933H12.6928V9.10186C12.6928 7.18231 12.7466 6.67867 12.9756 6.45396C13.3884 6.04936 17.3983 6.04936 17.8111 6.45396ZM55.7877 6.42006C56.1144 6.55387 56.5521 6.87568 56.7602 7.135C56.9683 7.39449 57.6818 9.21131 58.3456 11.1725C59.8311 15.5603 60.0276 15.9571 60.9386 16.4129C61.6269 16.7571 61.9808 16.7683 72.2465 16.7683C84.2207 16.7683 83.9722 16.7432 85.3432 18.0876C86.7861 19.5021 86.6888 17.6214 86.6888 44.13C86.6888 70.6386 86.7861 68.7578 85.3432 70.1724C83.8788 71.6084 87.3575 71.4917 46 71.4917C4.64249 71.4917 8.12121 71.6084 6.65677 70.1724C5.21393 68.7578 5.31115 70.6386 5.31115 44.13C5.31115 17.6214 5.21393 19.5021 6.65677 18.0876C8.02777 16.7432 7.77931 16.7683 19.7535 16.7683C30.0192 16.7683 30.3731 16.7571 31.0614 16.4129C31.9724 15.9571 32.1688 15.5603 33.6544 11.1725C34.3182 9.21131 35.0315 7.39467 35.2392 7.1357C35.9976 6.19058 35.9931 6.19093 45.9608 6.18352C53.412 6.17804 55.3082 6.22359 55.7877 6.42006ZM43.4795 18.6418C37.6854 19.3412 32.8332 21.6611 28.8045 25.6582C25.2265 29.208 23.1637 32.9969 22.1115 37.9515C21.6692 40.0337 21.6692 44.6958 22.1115 46.7779C23.1647 51.7378 25.2334 55.5347 28.8045 59.0631C32.4305 62.6458 36.3931 64.7447 41.499 65.7872C43.5974 66.2157 48.3488 66.2153 50.5444 65.7864C55.4029 64.8373 59.4284 62.7234 63.0389 59.2248C66.6651 55.7112 68.8246 51.7867 69.8885 46.7779C70.3308 44.6959 70.3308 40.0337 69.8885 37.9515C69.1968 34.6946 67.9145 31.6656 66.0774 28.9486C64.9439 27.2723 61.4267 23.8117 59.758 22.7308C56.856 20.851 53.7271 19.5602 50.6416 18.9703C49.1907 18.6928 44.746 18.4889 43.4795 18.6418ZM12.2897 22.4281C11.5295 22.8216 10.8924 23.8631 10.8924 24.712C10.8924 25.5879 11.5292 26.6049 12.328 27.0046C12.9625 27.3219 13.3864 27.3599 16.2935 27.3599C20.0817 27.3599 20.6879 27.1906 21.3323 25.9523C21.7914 25.07 21.7914 24.354 21.3323 23.4717C20.6851 22.2279 20.0862 22.0628 16.2557 22.0719C13.3341 22.0787 12.887 22.119 12.2897 22.4281ZM77.1037 22.4281C76.3436 22.8216 75.7065 23.8631 75.7065 24.712C75.7065 25.5879 76.3433 26.6049 77.1421 27.0046C77.5328 27.2 78.1021 27.3599 78.407 27.3599C79.777 27.3599 81.1076 26.0552 81.1076 24.712C81.1076 23.8361 80.4708 22.8191 79.672 22.4194C78.785 21.9758 77.9724 21.9785 77.1037 22.4281ZM50.3265 24.3312C53.8877 25.2414 56.8891 26.894 59.3339 29.2909C61.7648 31.6746 63.4085 34.5343 64.4099 38.1226C64.9461 40.0439 64.9461 44.6855 64.4099 46.6068C63.4085 50.1951 61.7648 53.0549 59.3339 55.4385C56.9028 57.822 53.9862 59.4337 50.3265 60.4155C48.367 60.9412 43.633 60.9412 41.6735 60.4155C38.0138 59.4337 35.0972 57.822 32.6661 55.4385C25.7078 48.6157 25.2593 37.786 31.6282 30.3674C34.3859 27.1551 38.9108 24.6573 43.1194 24.0242C44.8892 23.758 48.7224 23.9213 50.3265 24.3312ZM43.211 29.4184C37.0393 30.7148 32.4971 36.2036 32.4971 42.3647C32.4971 48.5608 37.0969 54.0595 43.3372 55.3232C47.7674 56.2205 52.3134 54.8546 55.5278 51.6605C58.0073 49.1967 59.2075 46.5606 59.4403 43.0673C59.9399 35.5707 53.5977 29.0604 45.8725 29.1397C45.1009 29.1474 43.9033 29.2729 43.211 29.4184ZM47.6565 34.6178C49.2162 34.9395 50.5071 35.6369 51.6792 36.7914C56.3224 41.3649 53.7912 49.0703 47.2864 50.1641C44.7318 50.5935 42.2107 49.7861 40.3208 47.9331C37.1232 44.798 37.121 39.9161 40.3158 36.7955C42.3153 34.8424 44.9522 34.06 47.6565 34.6178Z" fill="url(#paint0_linear_360_252)"/>
<defs>
<linearGradient id="paint0_linear_360_252" x1="46" y1="0.850098" x2="46" y2="76.6993" gradientUnits="userSpaceOnUse">
<stop stop-color="#EC5128"/>
<stop offset="1" stop-color="#FDB71B"/>
</linearGradient>
</defs>
</svg>
