<svg width="87" height="87" viewBox="0 0 87 87" fill="none" xmlns="http://www.w3.org/2000/svg">
<path fill-rule="evenodd" clip-rule="evenodd" d="M64.1313 1.05933C64.0948 1.17448 63.4457 6.50343 62.689 12.9016C61.9321 19.2998 61.2677 24.8547 61.2125 25.2461L61.1123 25.9574H66.3123H71.5125V53.7429V81.5283H66.3317H61.1509L61.148 68.5144C61.1454 57.7172 61.1024 55.3009 60.8954 54.3287C60.2037 51.0829 57.6367 48.1518 54.4981 47.0242L53.507 46.668L53.5041 41.0413C53.5007 34.6864 53.4013 33.8711 52.3811 31.8284C51.515 30.0941 49.6355 28.2374 47.9015 27.403C45.579 26.2853 45.7821 26.2984 30.4752 26.295C17.3087 26.2924 16.6431 26.3068 15.389 26.6228C13.4702 27.1065 12.167 27.8495 10.6956 29.2994C9.22427 30.7493 8.47024 32.0334 7.97934 33.9242C7.67732 35.088 7.64386 35.7886 7.64386 40.9425V46.668L6.6527 47.0242C3.51414 48.1518 0.947159 51.0829 0.255475 54.3287C0.0484111 55.3009 0.00543563 57.7172 0.00288768 68.5144L0 81.5283H2.54795H5.0959V84.0391V86.5498H7.64386H10.1918V84.0391V81.5283H30.5754H50.959V84.0391V86.5498H53.507H56.0549V84.0391V81.5283H58.6029H61.1509V84.0391V86.5498H74.0605H86.9701V84.0391V81.5283H81.7893H76.6084V53.7429V25.9574H81.8042H87L86.9016 25.3298C86.8476 24.9846 86.1884 19.5049 85.4367 13.1527C84.6851 6.80054 84.0332 1.43393 83.9882 1.22671L83.9061 0.850098H74.052C66.3173 0.850098 64.1834 0.895123 64.1313 1.05933ZM80.2415 12.6924C80.6892 16.4438 81.0974 19.8333 81.1484 20.2246L81.2409 20.936H74.0836C67.3799 20.936 66.9262 20.9174 66.9272 20.643C66.9279 20.4819 67.3101 17.1866 67.7766 13.3201C68.243 9.45355 68.6247 6.19595 68.6248 6.08079C68.6248 5.91776 69.8183 5.87157 74.0262 5.87157H79.4273L80.2415 12.6924ZM45.5543 31.8644C46.6477 32.3934 47.4456 33.2044 47.9684 34.318C48.3068 35.0386 48.3289 35.3931 48.3768 40.871L48.4272 46.6621L47.4281 47.0212C45.2523 47.8028 43.0916 49.6589 41.9945 51.6883C41.4008 52.7865 40.7672 54.9412 40.7672 55.8619V56.421H30.5754H20.3836L20.3807 55.9607C20.3744 54.9939 19.8543 53.1088 19.272 51.9429C18.1925 49.781 16.0086 47.8425 13.7309 47.0242L12.7398 46.668V41.1973C12.7398 35.1917 12.8106 34.6389 13.7421 33.3716C14.3621 32.5284 15.1202 31.9899 16.2184 31.6133C17.0069 31.3428 18.1103 31.3235 30.8302 31.359L44.5892 31.3974L45.5543 31.8644ZM22.9316 43.8673V46.3781H25.4795H28.0275V43.8673V41.3566H25.4795H22.9316V43.8673ZM33.1234 43.8673V46.3781H35.6713H38.2193V43.8673V41.3566H35.6713H33.1234V43.8673ZM12.4743 51.9728C13.5264 52.4802 14.3275 53.3015 14.845 54.4039C15.1909 55.1405 15.2043 55.435 15.2514 63.3255L15.2999 71.4854H30.5815H45.8631V63.5411C45.8631 55.9959 45.8803 55.5515 46.2042 54.6983C46.6668 53.4801 47.5456 52.5185 48.7128 51.9537C49.5161 51.5649 49.9064 51.4832 50.959 51.4832C53.0823 51.4832 54.7251 52.5143 55.6123 54.4039C55.9625 55.1496 55.971 55.3904 56.0172 65.8363L56.0646 76.5069H30.5802H5.0959V66.1596C5.0959 54.8322 5.09692 54.8197 6.09827 53.4575C7.52597 51.5155 10.2229 50.8875 12.4743 51.9728ZM40.7672 63.9532V66.4639H30.5754H20.3836V63.9532V61.4425H30.5754H40.7672V63.9532Z" fill="url(#paint0_linear_360_256)"/>
<defs>
<linearGradient id="paint0_linear_360_256" x1="43.5" y1="0.850098" x2="43.5" y2="86.5498" gradientUnits="userSpaceOnUse">
<stop stop-color="#EC5128"/>
<stop offset="1" stop-color="#FDB71B"/>
</linearGradient>
</defs>
</svg>
