<svg width="19" height="20" viewBox="0 0 19 20" fill="none" xmlns="http://www.w3.org/2000/svg">
<path fill-rule="evenodd" clip-rule="evenodd" d="M5.44529 0.0409337C5.15786 0.17238 5.06949 0.367283 5.06949 0.869662V1.23833L3.67506 1.23899C2.08016 1.23977 1.92912 1.25837 1.39311 1.5197C0.737117 1.83953 0.218312 2.50168 0.065538 3.21409C-0.021846 3.62159 -0.021846 17.6108 0.065538 18.0183C0.265109 18.9488 1.06418 19.7381 2.00626 19.9353C2.41881 20.0216 16.5812 20.0216 16.9937 19.9353C17.9358 19.7381 18.7349 18.9488 18.9345 18.0183C19.0218 17.6108 19.0218 3.62159 18.9345 3.21409C18.7817 2.50168 18.2629 1.83953 17.6069 1.5197C17.0711 1.25845 16.9195 1.23977 15.3284 1.23899L13.9375 1.23833L13.9241 0.811246C13.9097 0.349739 13.8753 0.262759 13.6384 0.0880574C13.4852 -0.0249066 13.11 -0.0249066 12.9568 0.0880574C12.7199 0.262759 12.6855 0.349739 12.6711 0.811246L12.6576 1.23833H9.5H6.34235L6.32894 0.811246C6.31458 0.352122 6.27965 0.262407 6.04907 0.0923556C5.91797 -0.00431444 5.60293 -0.0311585 5.44529 0.0409337ZM5.07589 2.91579C5.09033 3.3773 5.12471 3.46428 5.36162 3.63898C5.51479 3.75194 5.89004 3.75194 6.04321 3.63898C6.28012 3.46428 6.3145 3.3773 6.32894 2.91579L6.34235 2.48871H9.5H12.6576L12.6711 2.91579C12.6823 3.27321 12.6977 3.3605 12.766 3.45064C12.8949 3.62101 13.0374 3.70709 13.225 3.72795C13.4547 3.75355 13.6532 3.66833 13.7967 3.48268C13.9035 3.34448 13.9116 3.30841 13.9242 2.91013L13.9376 2.48508L15.3483 2.49664L16.7589 2.50825L16.9799 2.61062C17.2608 2.74074 17.4729 2.95029 17.6047 3.22776C17.7037 3.43634 17.7089 3.48022 17.7212 4.21775L17.734 4.98947H9.50297H1.2719V4.29324C1.2719 3.51965 1.30759 3.32924 1.5087 3.0293C1.65055 2.81775 1.87066 2.65821 2.15405 2.56147C2.33606 2.49934 2.51553 2.49113 3.71114 2.49L5.06248 2.48871L5.07589 2.91579ZM17.7187 12.0131L17.7083 17.7863L17.6047 18.0046C17.4729 18.2821 17.2608 18.4916 16.9799 18.6217L16.7589 18.7241H9.5H2.24108L2.02011 18.6217C1.7392 18.4916 1.52705 18.2821 1.39532 18.0046L1.29168 17.7863L1.28128 12.0131L1.27087 6.23985H9.5H17.7291L17.7187 12.0131ZM3.41991 8.812C3.1347 8.91125 2.91582 9.07055 2.77389 9.28222C2.55897 9.60271 2.53068 9.77835 2.54485 10.7041C2.55711 11.5052 2.56118 11.5421 2.66119 11.7527C2.79291 12.0302 3.00506 12.2397 3.28597 12.3698C3.50472 12.4712 3.51624 12.4722 4.43656 12.4722C5.35688 12.4722 5.36839 12.4712 5.58714 12.3698C5.86805 12.2397 6.0802 12.0302 6.21193 11.7527C6.31454 11.5366 6.31557 11.5252 6.31557 10.6162C6.31557 9.70712 6.31454 9.69574 6.21193 9.47966C6.0802 9.2022 5.86805 8.99264 5.58714 8.86252C5.3723 8.763 5.34196 8.75987 4.49589 8.7503C3.73681 8.7417 3.59935 8.74956 3.41991 8.812ZM8.48336 8.812C8.19814 8.91125 7.97927 9.07055 7.83733 9.28222C7.62241 9.60271 7.59413 9.77835 7.60829 10.7041C7.62055 11.5052 7.62463 11.5421 7.72463 11.7527C7.85636 12.0302 8.06851 12.2397 8.34941 12.3698C8.56817 12.4712 8.57968 12.4722 9.5 12.4722C10.4203 12.4722 10.4318 12.4712 10.6506 12.3698C10.9315 12.2397 11.1436 12.0302 11.2754 11.7527C11.378 11.5366 11.379 11.5252 11.379 10.6162C11.379 9.70712 11.378 9.69574 11.2754 9.47966C11.1436 9.2022 10.9315 8.99264 10.6506 8.86252C10.4357 8.763 10.4054 8.75987 9.55934 8.7503C8.80026 8.7417 8.66279 8.74956 8.48336 8.812ZM13.5468 8.812C13.2616 8.91125 13.0427 9.07055 12.9008 9.28222C12.6859 9.60271 12.6576 9.77835 12.6717 10.7041C12.684 11.5052 12.6881 11.5421 12.7881 11.7527C12.9198 12.0302 13.132 12.2397 13.4129 12.3698C13.6316 12.4712 13.6431 12.4722 14.5634 12.4722C15.4838 12.4722 15.4953 12.4712 15.714 12.3698C15.9949 12.2397 16.2071 12.0302 16.3388 11.7527C16.4414 11.5366 16.4425 11.5252 16.4425 10.6162C16.4425 9.70712 16.4414 9.69574 16.3388 9.47966C16.2071 9.2022 15.9949 8.99264 15.714 8.86252C15.4992 8.763 15.4689 8.75987 14.6228 8.7503C13.8637 8.7417 13.7262 8.74956 13.5468 8.812ZM5.06949 10.6162V11.2414H4.43656H3.80363V10.6162V9.99099H4.43656H5.06949V10.6162ZM10.1329 10.6162V11.2414H9.5H8.86707V10.6162V9.99099H9.5H10.1329V10.6162ZM15.1964 10.6162V11.2414H14.5634H13.9305V10.6162V9.99099H14.5634H15.1964V10.6162ZM3.41991 13.8135C3.1347 13.9128 2.91582 14.0721 2.77389 14.2837C2.55897 14.6042 2.53068 14.7799 2.54485 15.7057C2.55711 16.5068 2.56118 16.5436 2.66119 16.7542C2.79291 17.0317 3.00506 17.2412 3.28597 17.3714C3.50472 17.4727 3.51624 17.4737 4.43656 17.4737C5.35688 17.4737 5.36839 17.4727 5.58714 17.3714C5.86805 17.2412 6.0802 17.0317 6.21193 16.7542C6.31454 16.5381 6.31557 16.5268 6.31557 15.6177C6.31557 14.7086 6.31454 14.6973 6.21193 14.4812C6.0802 14.2037 5.86805 13.9942 5.58714 13.864C5.3723 13.7645 5.34196 13.7614 4.49589 13.7518C3.73681 13.7432 3.59935 13.7511 3.41991 13.8135ZM8.48336 13.8135C8.19814 13.9128 7.97927 14.0721 7.83733 14.2837C7.62241 14.6042 7.59413 14.7799 7.60829 15.7057C7.62055 16.5068 7.62463 16.5436 7.72463 16.7542C7.85636 17.0317 8.06851 17.2412 8.34941 17.3714C8.56817 17.4727 8.57968 17.4737 9.5 17.4737C10.4203 17.4737 10.4318 17.4727 10.6506 17.3714C10.9315 17.2412 11.1436 17.0317 11.2754 16.7542C11.378 16.5381 11.379 16.5268 11.379 15.6177C11.379 14.7086 11.378 14.6973 11.2754 14.4812C11.1436 14.2037 10.9315 13.9942 10.6506 13.864C10.4357 13.7645 10.4054 13.7614 9.55934 13.7518C8.80026 13.7432 8.66279 13.7511 8.48336 13.8135ZM13.5468 13.8135C13.2616 13.9128 13.0427 14.0721 12.9008 14.2837C12.6859 14.6042 12.6576 14.7799 12.6717 15.7057C12.684 16.5068 12.6881 16.5436 12.7881 16.7542C12.9198 17.0317 13.132 17.2412 13.4129 17.3714C13.6316 17.4727 13.6431 17.4737 14.5634 17.4737C15.4838 17.4737 15.4953 17.4727 15.714 17.3714C15.9949 17.2412 16.2071 17.0317 16.3388 16.7542C16.4414 16.5381 16.4425 16.5268 16.4425 15.6177C16.4425 14.7086 16.4414 14.6973 16.3388 14.4812C16.2071 14.2037 15.9949 13.9942 15.714 13.864C15.4992 13.7645 15.4689 13.7614 14.6228 13.7518C13.8637 13.7432 13.7262 13.7511 13.5468 13.8135ZM5.06949 15.6177V16.2429H4.43656H3.80363V15.6177V14.9925H4.43656H5.06949V15.6177ZM10.1329 15.6177V16.2429H9.5H8.86707V15.6177V14.9925H9.5H10.1329V15.6177ZM15.1964 15.6177V16.2429H14.5634H13.9305V15.6177V14.9925H14.5634H15.1964V15.6177Z" fill="#6141B8"/>
</svg>
