<svg width="19" height="24" viewBox="0 0 19 24" fill="none" xmlns="http://www.w3.org/2000/svg">
<path d="M7.02246 0.859375C12.6245 -0.830568 18.5191 3.67488 18.5 9.69824C18.4893 12.9765 17.0177 15.7441 13.9453 18.1182C13.2647 18.6439 12.5445 19.3291 11.9287 20.0098C11.3183 20.6846 10.7825 21.3855 10.4951 21.9453C10.2493 22.4242 9.97582 22.853 9.73828 23.1543C9.6478 23.2691 9.56551 23.3556 9.5 23.4199C9.43449 23.3556 9.35219 23.2691 9.26172 23.1543C9.02418 22.853 8.7507 22.4242 8.50488 21.9453C8.2175 21.3855 7.68174 20.6846 7.07129 20.0098C6.45547 19.3291 5.7353 18.6439 5.05469 18.1182C2.12639 15.8558 0.607982 13.1374 0.505859 10.1318L0.5 9.83984C0.485412 5.47408 2.95652 2.08602 7.02246 0.859375ZM9.5 6.82617C9.05981 6.82617 8.61154 6.88322 8.20801 7.00293C7.80994 7.12109 7.42022 7.31153 7.13574 7.60156C5.8036 8.95999 6.28644 11.2688 7.90137 12.3477C8.20609 12.5511 8.47351 12.7221 8.7168 12.8408C8.96625 12.9625 9.22068 13.0449 9.5 13.0449C9.77932 13.0449 10.0338 12.9625 10.2832 12.8408C10.5265 12.7221 10.7939 12.5512 11.0986 12.3477C12.7136 11.2688 13.1964 8.95999 11.8643 7.60156C11.5799 7.31162 11.1909 7.1211 10.793 7.00293C10.3893 6.8831 9.94039 6.82617 9.5 6.82617Z" stroke="#6141B8"/>
</svg>
