<svg width="251" height="52" viewBox="0 0 251 52" fill="none" xmlns="http://www.w3.org/2000/svg">
<path d="M67.1886 25.196H70.8606V21.632H73.7046V25.196H77.4126V27.896H73.7406V31.46H70.8966V27.896H67.1886V25.196ZM85.3509 32H80.3829L85.2249 22.82H79.7529V19.256H89.9049V22.298L85.3509 32ZM96.4064 31.262C95.9504 29.786 95.7224 28.304 95.7224 26.816C95.7224 25.328 95.9504 23.846 96.4064 22.37C96.8624 20.894 97.5284 19.556 98.4044 18.356L101.158 19.364C99.5624 21.572 98.7644 24.056 98.7644 26.816C98.7644 29.576 99.5624 32.06 101.158 34.268L98.4044 35.276C97.5284 34.076 96.8624 32.738 96.4064 31.262ZM112.469 29.75V32H108.581V29.75H102.443V26.258L107.267 19.256H112.451V26.402H114.179V29.75H112.469ZM108.635 23.18H108.563L106.439 26.402H108.635V23.18ZM119.762 28.004H119.564C118.388 28.004 117.368 27.62 116.504 26.852C115.64 26.084 115.208 25.052 115.208 23.756C115.208 22.22 115.742 21.026 116.81 20.174C117.89 19.322 119.216 18.896 120.788 18.896C122.372 18.896 123.698 19.31 124.766 20.138C125.834 20.966 126.368 22.16 126.368 23.72C126.368 25.052 125.84 26.45 124.784 27.914L121.868 32H116.666L119.672 28.112L119.762 28.004ZM120.788 24.98C121.172 24.98 121.484 24.86 121.724 24.62C121.976 24.368 122.102 24.062 122.102 23.702C122.102 23.33 121.976 23.018 121.724 22.766C121.484 22.514 121.172 22.388 120.788 22.388C120.392 22.388 120.068 22.514 119.816 22.766C119.564 23.018 119.438 23.33 119.438 23.702C119.438 24.062 119.564 24.368 119.816 24.62C120.068 24.86 120.392 24.98 120.788 24.98ZM138.792 27.716C138.792 28.556 138.63 29.294 138.306 29.93C137.994 30.554 137.574 31.034 137.046 31.37C136.518 31.706 135.954 31.952 135.354 32.108C134.766 32.276 134.142 32.36 133.482 32.36C132.126 32.36 130.902 32.006 129.81 31.298C128.718 30.59 128.058 29.636 127.83 28.436L131.79 27.428C131.862 27.788 132.042 28.094 132.33 28.346C132.618 28.598 132.954 28.724 133.338 28.724C134.13 28.724 134.526 28.4 134.526 27.752C134.526 27.032 133.77 26.672 132.258 26.672C131.322 26.672 130.212 26.798 128.928 27.05L129.378 19.256H138.036V22.82H132.996L132.924 23.738C133.308 23.678 133.626 23.648 133.878 23.648C135.294 23.648 136.464 23.99 137.388 24.674C138.324 25.358 138.792 26.372 138.792 27.716ZM145.167 22.37C145.623 23.846 145.851 25.328 145.851 26.816C145.851 28.304 145.623 29.786 145.167 31.262C144.711 32.738 144.045 34.076 143.169 35.276L140.415 34.268C142.011 32.06 142.809 29.576 142.809 26.816C142.809 24.056 142.011 21.572 140.415 19.364L143.169 18.356C144.045 19.556 144.711 20.894 145.167 22.37Z" fill="#6141B8"/>
<path d="M161.266 29.75V32H157.378V29.75H151.24V26.258L156.064 19.256H161.248V26.402H162.976V29.75H161.266ZM157.432 23.18H157.36L155.236 26.402H157.432V23.18ZM170.341 32H165.373L170.215 22.82H164.743V19.256H174.895V22.298L170.341 32ZM182.945 22.37C182.753 22.178 182.501 22.082 182.189 22.082C181.877 22.082 181.625 22.178 181.433 22.37C181.241 22.562 181.145 22.778 181.145 23.018C181.145 23.27 181.241 23.498 181.433 23.702C181.625 23.894 181.877 23.99 182.189 23.99C182.501 23.99 182.753 23.894 182.945 23.702C183.137 23.498 183.233 23.27 183.233 23.018C183.233 22.778 183.137 22.562 182.945 22.37ZM182.999 27.32C182.807 27.116 182.537 27.014 182.189 27.014C181.841 27.014 181.565 27.116 181.361 27.32C181.169 27.524 181.073 27.776 181.073 28.076C181.073 28.376 181.169 28.628 181.361 28.832C181.565 29.024 181.841 29.12 182.189 29.12C182.537 29.12 182.807 29.024 182.999 28.832C183.203 28.628 183.305 28.376 183.305 28.076C183.305 27.776 183.203 27.524 182.999 27.32ZM185.357 25.322V25.376C185.981 25.604 186.491 25.982 186.887 26.51C187.283 27.038 187.481 27.644 187.481 28.328C187.481 29.672 186.965 30.68 185.933 31.352C184.901 32.024 183.653 32.36 182.189 32.36C181.253 32.36 180.401 32.234 179.633 31.982C178.865 31.73 178.217 31.292 177.689 30.668C177.161 30.044 176.897 29.27 176.897 28.346C176.897 27.674 177.089 27.08 177.473 26.564C177.857 26.048 178.373 25.658 179.021 25.394V25.34C178.469 25.136 178.013 24.794 177.653 24.314C177.293 23.834 177.113 23.282 177.113 22.658C177.113 22.022 177.257 21.458 177.545 20.966C177.833 20.462 178.217 20.066 178.697 19.778C179.189 19.478 179.729 19.256 180.317 19.112C180.905 18.968 181.529 18.896 182.189 18.896C182.837 18.896 183.455 18.968 184.043 19.112C184.631 19.256 185.171 19.478 185.663 19.778C186.155 20.066 186.545 20.462 186.833 20.966C187.121 21.458 187.265 22.022 187.265 22.658C187.265 23.306 187.091 23.864 186.743 24.332C186.395 24.8 185.933 25.13 185.357 25.322ZM189.032 28.418V25.322H194V28.418H189.032ZM203.233 31.928C202.537 32.216 201.739 32.36 200.839 32.36C199.939 32.36 199.141 32.216 198.445 31.928C197.761 31.628 197.209 31.25 196.789 30.794C196.381 30.338 196.045 29.798 195.781 29.174C195.529 28.55 195.355 27.95 195.259 27.374C195.163 26.786 195.115 26.18 195.115 25.556C195.115 24.932 195.163 24.338 195.259 23.774C195.355 23.198 195.529 22.604 195.781 21.992C196.045 21.38 196.381 20.852 196.789 20.408C197.209 19.964 197.761 19.604 198.445 19.328C199.141 19.04 199.939 18.896 200.839 18.896C201.739 18.896 202.537 19.04 203.233 19.328C203.929 19.604 204.481 19.964 204.889 20.408C205.297 20.852 205.633 21.38 205.897 21.992C206.161 22.604 206.335 23.198 206.419 23.774C206.515 24.338 206.563 24.932 206.563 25.556C206.563 26.18 206.515 26.786 206.419 27.374C206.335 27.95 206.161 28.55 205.897 29.174C205.633 29.798 205.297 30.338 204.889 30.794C204.481 31.25 203.929 31.628 203.233 31.928ZM202.135 25.556C202.135 23.576 201.703 22.586 200.839 22.586C199.975 22.586 199.543 23.576 199.543 25.556C199.543 27.608 199.975 28.634 200.839 28.634C201.703 28.634 202.135 27.608 202.135 25.556ZM214.469 23.252H214.667C215.843 23.252 216.863 23.636 217.727 24.404C218.591 25.172 219.023 26.204 219.023 27.5C219.023 29.036 218.483 30.23 217.403 31.082C216.335 31.934 215.015 32.36 213.443 32.36C211.859 32.36 210.533 31.946 209.465 31.118C208.397 30.29 207.863 29.096 207.863 27.536C207.863 26.204 208.391 24.806 209.447 23.342L212.363 19.256H217.565L214.631 23.054L214.469 23.252ZM213.443 26.24C213.059 26.24 212.741 26.366 212.489 26.618C212.249 26.858 212.129 27.158 212.129 27.518C212.129 27.89 212.249 28.202 212.489 28.454C212.741 28.706 213.059 28.832 213.443 28.832C213.839 28.832 214.163 28.706 214.415 28.454C214.667 28.202 214.793 27.89 214.793 27.518C214.793 27.158 214.667 26.858 214.415 26.618C214.163 26.366 213.839 26.24 213.443 26.24ZM220.286 28.418V25.322H225.254V28.418H220.286ZM235.387 25.25V25.322C236.035 25.526 236.557 25.898 236.953 26.438C237.361 26.966 237.565 27.536 237.565 28.148C237.565 29.096 237.295 29.9 236.755 30.56C236.215 31.208 235.555 31.67 234.775 31.946C233.995 32.222 233.149 32.36 232.237 32.36C230.833 32.36 229.585 32.03 228.493 31.37C227.413 30.71 226.711 29.732 226.387 28.436L230.383 27.5C230.455 27.836 230.635 28.13 230.923 28.382C231.223 28.634 231.583 28.76 232.003 28.76C232.291 28.76 232.549 28.694 232.777 28.562C233.005 28.418 233.119 28.196 233.119 27.896C233.119 27.536 232.963 27.29 232.651 27.158C232.339 27.026 231.877 26.96 231.265 26.96H230.041V24.008H231.409C232.417 24.008 232.921 23.702 232.921 23.09C232.921 22.838 232.819 22.652 232.615 22.532C232.423 22.412 232.189 22.352 231.913 22.352C231.601 22.352 231.319 22.448 231.067 22.64C230.827 22.832 230.677 23.102 230.617 23.45L226.639 22.604C227.035 21.32 227.749 20.384 228.781 19.796C229.825 19.196 230.989 18.896 232.273 18.896C232.873 18.896 233.455 18.968 234.019 19.112C234.595 19.256 235.135 19.472 235.639 19.76C236.143 20.048 236.551 20.444 236.863 20.948C237.175 21.452 237.331 22.022 237.331 22.658C237.331 23.342 237.151 23.906 236.791 24.35C236.431 24.782 235.963 25.082 235.387 25.25ZM245.452 22.37C245.26 22.178 245.008 22.082 244.696 22.082C244.384 22.082 244.132 22.178 243.94 22.37C243.748 22.562 243.652 22.778 243.652 23.018C243.652 23.27 243.748 23.498 243.94 23.702C244.132 23.894 244.384 23.99 244.696 23.99C245.008 23.99 245.26 23.894 245.452 23.702C245.644 23.498 245.74 23.27 245.74 23.018C245.74 22.778 245.644 22.562 245.452 22.37ZM245.506 27.32C245.314 27.116 245.044 27.014 244.696 27.014C244.348 27.014 244.072 27.116 243.868 27.32C243.676 27.524 243.58 27.776 243.58 28.076C243.58 28.376 243.676 28.628 243.868 28.832C244.072 29.024 244.348 29.12 244.696 29.12C245.044 29.12 245.314 29.024 245.506 28.832C245.71 28.628 245.812 28.376 245.812 28.076C245.812 27.776 245.71 27.524 245.506 27.32ZM247.864 25.322V25.376C248.488 25.604 248.998 25.982 249.394 26.51C249.79 27.038 249.988 27.644 249.988 28.328C249.988 29.672 249.472 30.68 248.44 31.352C247.408 32.024 246.16 32.36 244.696 32.36C243.76 32.36 242.908 32.234 242.14 31.982C241.372 31.73 240.724 31.292 240.196 30.668C239.668 30.044 239.404 29.27 239.404 28.346C239.404 27.674 239.596 27.08 239.98 26.564C240.364 26.048 240.88 25.658 241.528 25.394V25.34C240.976 25.136 240.52 24.794 240.16 24.314C239.8 23.834 239.62 23.282 239.62 22.658C239.62 22.022 239.764 21.458 240.052 20.966C240.34 20.462 240.724 20.066 241.204 19.778C241.696 19.478 242.236 19.256 242.824 19.112C243.412 18.968 244.036 18.896 244.696 18.896C245.344 18.896 245.962 18.968 246.55 19.112C247.138 19.256 247.678 19.478 248.17 19.778C248.662 20.066 249.052 20.462 249.34 20.966C249.628 21.458 249.772 22.022 249.772 22.658C249.772 23.306 249.598 23.864 249.25 24.332C248.902 24.8 248.44 25.13 247.864 25.322Z" fill="#181A2F"/>
<circle cx="26" cy="26" r="25" stroke="url(#paint0_linear_360_86)"/>
<path fill-rule="evenodd" clip-rule="evenodd" d="M26.9092 14.0752C26.4865 14.2871 26.4487 14.8848 26.8418 15.1418C26.9023 15.1813 27.1989 15.2685 27.501 15.3354C28.4251 15.5403 28.8812 15.691 29.709 16.0652C30.8947 16.601 31.9433 17.3459 32.922 18.3478C34.3349 19.794 35.2615 21.5325 35.6936 23.5483C35.8102 24.0925 35.8391 24.1601 36.0079 24.2854C36.2777 24.4857 36.6136 24.4667 36.8325 24.2387C37.0296 24.0335 37.0428 23.8997 36.924 23.3173C36.0598 19.0843 32.8502 15.5848 28.6959 14.346C28.2226 14.205 27.3106 13.9999 27.1568 14C27.1031 14 26.9917 14.0339 26.9092 14.0752ZM18.5869 15.3716C18.0348 15.5478 17.5763 15.9309 16.2842 17.2958C15.3586 18.2736 15.1048 18.7661 15.0188 19.7523C14.8966 21.1541 15.3703 22.9289 16.4149 24.9832C16.8569 25.8525 17.0549 26.1895 17.6145 27.0251C19.7267 30.179 22.4952 32.6938 25.7665 34.4301C27.6204 35.4141 29.1868 35.9194 30.6139 35.9938C31.6227 36.0464 32.5187 35.7649 33.1919 35.184C33.2708 35.1158 33.7659 34.6195 34.292 34.0809C35.1631 33.1893 35.2648 33.0694 35.4306 32.7394C35.7562 32.0913 35.7571 31.5134 35.4336 30.8509C35.2596 30.4947 35.2152 30.4457 33.6562 28.8894C32.143 27.3789 32.0398 27.285 31.7317 27.1387C31.0719 26.8254 30.3935 26.8557 29.7535 27.2272C29.6461 27.2895 29.1572 27.7359 28.6671 28.2192L27.776 29.098L27.3469 28.8712C25.4529 27.8706 22.9628 25.3695 22.0374 23.5381L21.8719 23.2106L22.7002 22.3774C23.5832 21.4891 23.7955 21.2214 23.9381 20.8162C24.1305 20.2693 24.0917 19.7431 23.8182 19.1901C23.6771 18.9049 23.5314 18.7464 22.0655 17.2844C20.3971 15.6202 20.2627 15.5082 19.7556 15.3579C19.447 15.2665 18.896 15.2729 18.5869 15.3716ZM19.5526 16.6223C19.8225 16.7488 22.6066 19.5399 22.7257 19.8032C22.9496 20.2984 22.8554 20.4617 21.6719 21.6302C21.145 22.1503 20.6803 22.6423 20.6391 22.7234C20.5181 22.9617 20.5694 23.3972 20.7682 23.8192C21.3222 24.9951 22.2197 26.1805 23.5875 27.5428C24.71 28.6608 25.8642 29.5266 27.0313 30.1261C27.5193 30.3769 27.5855 30.3994 27.8284 30.3974C27.9983 30.396 28.1473 30.3669 28.244 30.3163C28.327 30.2728 28.8311 29.8072 29.3643 29.2816C29.8975 28.7559 30.3999 28.2922 30.4807 28.2511C30.6961 28.1416 31.0732 28.1771 31.2905 28.3274C31.5953 28.5381 34.2152 31.2024 34.3189 31.407C34.4452 31.6564 34.445 31.9377 34.3183 32.1863C34.2253 32.3689 32.8369 33.8214 32.3592 34.2361C31.6685 34.8355 30.698 34.9078 29.1058 34.4787C27.9427 34.1652 26.1472 33.2968 24.6678 32.3323C21.5212 30.2809 18.6435 26.9571 17.1885 23.6936C16.2532 21.5955 16.0226 19.9868 16.5138 18.9864C16.6024 18.8062 16.8655 18.5118 17.622 17.7466C18.2497 17.1117 18.6852 16.706 18.8079 16.6417C19.049 16.5154 19.3103 16.5087 19.5526 16.6223ZM26.7033 18.0835C26.4086 18.2627 26.3044 18.6503 26.4756 18.9304C26.5966 19.1283 26.7019 19.1816 27.2228 19.3085C28.4178 19.5994 29.3763 20.1459 30.1927 21.0018C30.9612 21.8075 31.4834 22.7762 31.7131 23.8225C31.8021 24.2279 31.8647 24.3639 32.0177 24.4839C32.3667 24.7578 32.9267 24.5559 33.0074 24.1272C33.0686 23.8012 32.7449 22.6806 32.374 21.9345C31.4127 20.0012 29.6696 18.6089 27.5762 18.1021C27.0535 17.9756 26.8864 17.9721 26.7033 18.0835Z" fill="#6141B8"/>
<defs>
<linearGradient id="paint0_linear_360_86" x1="26" y1="1" x2="26" y2="51" gradientUnits="userSpaceOnUse">
<stop stop-color="#B19CD7"/>
<stop offset="1" stop-color="#E3A8D4"/>
</linearGradient>
</defs>
</svg>
