<svg width="87" height="67" viewBox="0 0 87 67" fill="none" xmlns="http://www.w3.org/2000/svg">
<path fill-rule="evenodd" clip-rule="evenodd" d="M40.8882 0.108492C36.528 0.717292 32.9555 2.48894 30.1552 5.43079C26.6284 9.13594 24.9833 13.3389 24.4738 19.9455C24.3686 21.3101 24.2488 22.5929 24.2077 22.7963L24.1329 23.1661L17.462 23.2381C11.8251 23.2988 10.6562 23.3543 9.91968 23.5959C8.02941 24.2162 6.53749 25.3439 5.46176 26.966C4.5524 28.3371 4.1962 29.5976 4.18193 31.4952C4.17139 32.8997 4.22492 33.1632 4.78913 34.4896C5.34739 35.8022 5.41639 36.136 5.49711 37.9118C5.54622 38.994 5.70291 40.247 5.84532 40.6964C6.4323 42.5488 7.67491 44.5138 8.8538 45.4538L9.53136 45.9942L9.48157 47.129L9.43177 48.2637L8.49709 48.5527C7.98302 48.7119 6.57488 49.1302 5.36795 49.4827C2.9366 50.1926 1.9404 50.7549 1.07216 51.9073C0.0654277 53.2435 0 53.7525 0 60.2534C0 65.7172 0.0210728 66.1328 0.317961 66.5019C0.75981 67.0513 1.78932 67.0513 2.23117 66.5019C2.52772 66.1332 2.54913 65.7194 2.54913 60.3441C2.54913 52.5462 2.29421 52.9983 7.53199 51.505L10.3906 50.6902L11.993 52.2969L13.5953 53.9034V59.8448C13.5953 66.128 13.6336 66.4644 14.3868 66.8101C14.9999 67.0912 15.2647 67.0459 15.7273 66.5799L16.1445 66.16V60.0382V53.9165L17.7814 52.262L19.4182 50.6077L20.373 50.9347C20.8981 51.1146 21.4368 51.3023 21.5702 51.3517C21.7446 51.4164 21.5926 51.6679 21.0288 52.2482C20.1072 53.1966 19.4366 54.4695 19.2017 55.7156C18.9648 56.9736 18.9817 65.6719 19.2221 66.2031C19.407 66.6114 20.0141 67 20.4671 67C20.5925 67 20.8758 66.853 21.0964 66.6732L21.4976 66.3465L21.5826 61.0694C21.6987 53.8625 21.4562 54.2559 27.4115 51.6104C29.5424 50.6639 31.3118 49.8893 31.3436 49.8893C31.3753 49.8893 31.7021 50.3706 32.0701 50.9587C34.5497 54.9241 38.6879 57.2501 43.3352 57.2905C45.8362 57.3124 47.6374 56.8912 49.839 55.7697C51.749 54.7968 53.8094 52.8499 54.9765 50.9152C55.3171 50.3509 55.6245 49.8893 55.66 49.8893C55.6954 49.8893 57.4679 50.6639 59.5988 51.6104C63.6572 53.4134 64.2842 53.8213 64.9752 55.108C65.3231 55.756 65.3472 56.0731 65.4276 61.0694L65.5126 66.3465L65.9138 66.6732C66.3757 67.0494 66.6087 67.0746 67.1853 66.8101C67.9167 66.4745 67.9767 66.0557 67.9767 61.2831C67.9767 55.8672 67.7749 54.5275 66.7523 53.16C66.5846 52.9355 66.4473 52.6845 66.4473 52.602C66.4473 52.5195 66.8624 52.2471 67.3699 51.9966L68.2925 51.541L69.3375 52.5151C71.067 54.1273 72.5534 54.6502 74.4291 54.3062C75.6698 54.0787 76.3544 53.7012 77.6116 52.5515L78.6644 51.5887L81.0104 52.7743C83.4124 53.9883 83.9627 54.4046 84.2798 55.2475C84.3938 55.5502 84.4611 57.6579 84.4611 60.9178C84.4611 65.7324 84.484 66.135 84.7791 66.5019C85.2263 67.058 86.2504 67.0512 86.7025 66.4893C87.0145 66.1012 87.0281 65.8024 86.9779 60.4235L86.9253 54.7658L86.4749 53.9103C85.7085 52.4547 84.9461 51.8613 81.7871 50.2619L78.8542 48.7771L78.8624 47.4082L78.8705 46.0393L79.5579 45.485C80.9479 44.3637 81.9891 42.7459 82.5078 40.901C82.6658 40.3391 83.0504 39.225 83.3626 38.4251C83.6748 37.6251 84.0215 36.438 84.1331 35.7871C84.6856 32.5631 83.4867 28.8959 81.0915 26.4843L80.1276 25.5138L80.1228 24.0558C80.1189 22.8558 80.0406 22.4296 79.6808 21.6487C78.4176 18.9077 75.6053 17.4663 72.4005 17.9177C70.2076 18.2265 68.252 19.5974 67.3415 21.4641C66.942 22.2835 66.8692 22.6555 66.8524 23.9665L66.8327 25.5065L65.7305 26.6585C65.1243 27.2921 64.3741 28.2909 64.0633 28.878C63.7525 29.465 63.4762 29.8706 63.4493 29.7792C63.4223 29.6878 63.1667 26.9181 62.8815 23.6243C62.3138 17.0683 62.0555 15.3042 61.3378 13.0769C60.2821 9.80138 58.9396 7.57339 56.6019 5.21759C54.0939 2.6905 51.3357 1.17518 47.8993 0.436505C46.0381 0.0362847 42.5674 -0.126096 40.8882 0.108492ZM47.1589 2.89925C53.7258 4.33792 58.1159 9.07913 59.543 16.2735C59.6916 17.0226 60.0467 20.369 60.3324 23.7098C60.9301 30.7008 61.5088 36.0689 62.112 40.2217C62.5119 42.9741 62.5187 43.1427 62.2392 43.3576C61.1617 44.1857 55.5642 46.4671 54.61 46.4671C54.1027 46.4671 51.8953 45.3395 51.7726 45.0177C51.7119 44.8584 51.6623 43.6245 51.6623 42.2755V39.823L52.4718 39.2248C54.3148 37.8626 56.2016 35.4459 57.1215 33.2693C58.0654 31.0358 58.3111 29.7167 58.3446 26.7042C58.3806 23.4667 58.1789 22.6534 57.018 21.3532C54.7954 18.8643 49.3909 16.0624 44.3548 14.7881C42.0977 14.2171 38.165 13.5914 37.7533 13.7377C37.1858 13.9394 36.8774 14.3573 36.8774 14.9243C36.8774 15.6962 37.3531 16.131 38.3521 16.2723C45.3813 17.267 50.3517 19.1348 54.2488 22.2462C55.7372 23.4345 55.829 23.6914 55.8092 26.6187C55.7897 29.5569 55.4503 31.0603 54.3284 33.1811C52.1946 37.2147 48.1258 39.6442 43.5051 39.6442C36.808 39.6442 31.7115 34.7374 31.1745 27.7726C31.0273 25.8632 31.1862 25.4669 32.431 24.6371C34.506 23.2542 36.5375 20.4894 36.5375 19.0487C36.5375 18.3299 36.0554 17.8352 35.3547 17.8352C34.7025 17.8352 34.3539 18.1456 33.9554 19.0817C33.4337 20.3074 32.484 21.4173 31.0603 22.4659C30.3314 23.0027 29.5451 23.7177 29.3131 24.0548C28.1572 25.7342 28.471 30.0631 30.0014 33.5473C30.871 35.5269 32.7981 37.9384 34.5385 39.2248L35.3479 39.823V42.2755C35.3479 43.6245 35.2983 44.8584 35.2376 45.0177C35.1149 45.3395 32.9075 46.4671 32.4003 46.4671C31.446 46.4671 25.8485 44.1857 24.7711 43.3576C24.4915 43.1427 24.4983 42.9741 24.8982 40.2217C25.5015 36.0689 26.0801 30.7008 26.6778 23.7098C27.2209 17.3575 27.4568 15.7575 28.1655 13.6214C30.0993 7.79275 34.5138 3.83709 40.1912 2.8457C40.7521 2.74782 41.4021 2.63352 41.6358 2.59177C42.4564 2.44513 45.9818 2.64139 47.1589 2.89925ZM75.594 20.9198C76.6174 21.4084 77.3919 22.3405 77.5703 23.2987C77.6335 23.6381 77.6602 23.9412 77.6294 23.9722C77.5987 24.0031 77.0394 23.876 76.3865 23.6895C74.4169 23.1271 71.4753 23.2542 69.6075 23.9828C69.3133 24.0974 69.2924 24.0447 69.3779 23.4041C69.5523 22.0951 70.6651 20.9868 72.2348 20.5587C73.385 20.2449 74.4119 20.3553 75.594 20.9198ZM23.0781 29.2281L23.019 32.693L22.3858 34.0896C21.773 35.441 21.7526 35.5491 21.7526 37.4357C21.7526 39.7346 21.3986 41.0363 20.4177 42.3448C19.6035 43.4306 18.9319 43.9808 17.7618 44.5201C14.3903 46.0743 10.4801 44.65 8.83817 41.2697C8.20768 39.9719 7.98727 38.825 7.98727 36.8405C7.98727 35.4269 7.93594 35.1903 7.3527 33.9123C6.80668 32.7157 6.71882 32.3525 6.72222 31.3068C6.72885 29.2251 7.89839 27.3582 9.80616 26.3831C10.7519 25.8997 12.0067 25.8037 17.644 25.7832L23.1371 25.7631L23.0781 29.2281ZM75.879 26.2275C79.9167 27.4775 82.4696 31.8688 81.5133 35.9192L81.3172 36.7498L80.5524 36.0785C78.7806 34.5231 76.0439 33.0805 73.0305 32.1133C70.4095 31.2719 69.8018 31.4182 69.384 32.9904C69.2758 33.3981 68.9531 34.0283 68.6669 34.3909C67.7721 35.5245 68.1484 36.714 69.4015 36.714C69.8553 36.714 70.1041 36.5718 70.5814 36.0398C70.9142 35.669 71.3068 35.1311 71.4539 34.8447L71.7216 34.3238L72.7807 34.7259C76.1282 35.9971 77.9958 37.0651 79.4169 38.5214C80.1674 39.2905 80.2263 39.4105 80.1247 39.9621C79.9452 40.9369 79.0398 42.4689 78.1454 43.3114C74.8067 46.4557 69.2513 45.3979 67.3102 41.2483C67.0461 40.6837 66.7805 39.9522 66.7199 39.6228C66.6594 39.2934 66.3348 38.3784 65.9985 37.5892C64.4268 33.901 65.4298 29.9284 68.5302 27.5606C70.6504 25.9414 73.3644 25.4492 75.879 26.2275ZM10.5823 30.1806C10.1423 30.2436 9.51674 30.973 9.51674 31.4232C9.51674 31.5934 9.6889 31.9341 9.89911 32.1802C10.2584 32.6006 10.4149 32.6374 12.4907 32.7898C14.5593 32.9416 16.6348 33.3107 18.3075 33.8243C19.5907 34.2184 20.4496 33.5393 20.1561 32.3624C20.002 31.7438 18.7007 31.1465 16.5386 30.7018C14.9758 30.3803 11.3832 30.066 10.5823 30.1806ZM39.3822 41.673C40.8795 42.1456 43.2072 42.347 45.0365 42.1624C45.8785 42.0774 47.0448 41.8571 47.6281 41.673C48.2111 41.4889 48.784 41.3373 48.9008 41.3361C49.0586 41.3344 49.1135 41.8498 49.1147 43.3444C49.1163 45.2701 49.1382 45.3932 49.6334 46.2626C50.182 47.226 51.0431 47.8936 52.4192 48.4227C52.8441 48.5861 53.1918 48.7754 53.1918 48.8433C53.1918 48.9112 52.9612 49.333 52.6793 49.7804C50.4913 53.2543 46.2204 55.242 42.1507 54.681C39.5759 54.3261 37.5079 53.2989 35.7459 51.5002C34.7995 50.534 33.6815 48.9412 33.8404 48.7851C33.875 48.7511 34.3468 48.5261 34.8887 48.2853C36.3101 47.6537 36.8239 47.2335 37.3909 46.2378C37.8695 45.3975 37.894 45.2577 37.8955 43.3444C37.8967 41.8498 37.9516 41.3344 38.1095 41.3361C38.2264 41.3373 38.7991 41.4889 39.3822 41.673ZM67.3116 45.4528L68.1603 46.1682L68.111 47.4725L68.0617 48.7771L66.0839 49.795L64.1063 50.8131L61.2753 49.552C59.7183 48.8585 58.4148 48.243 58.3788 48.1842C58.3426 48.1255 59.0154 47.7812 59.8736 47.4192C61.5835 46.6979 63.5846 45.5984 64.2175 45.0322C64.6984 44.6019 65.0877 43.745 65.0877 43.1165C65.0877 42.7231 65.178 42.7998 65.7755 43.7007C66.1536 44.271 66.8449 45.0594 67.3116 45.4528ZM24.3867 46.0784C25.0409 46.4538 26.2785 47.0573 27.1367 47.4192C27.9949 47.7812 28.6672 48.1262 28.6304 48.1859C28.5939 48.2456 27.8355 48.6173 26.9451 49.012L25.3263 49.7296L23.4968 49.205C22.4908 48.9164 21.3427 48.561 20.9453 48.415L20.2231 48.15L20.2207 47.1801C20.2185 46.2149 20.2229 46.2065 21.1979 45.3257L22.1774 44.4407L22.6872 44.9181C22.9676 45.1807 23.7324 45.7028 24.3867 46.0784ZM13.7447 47.6618C14.7345 47.803 17.1429 47.6329 17.5254 47.3949C17.5868 47.3567 17.6748 47.6135 17.7207 47.9657C17.8007 48.5777 17.7416 48.67 16.3809 50.0578L14.9574 51.5098L13.5116 50.0616C12.1928 48.7408 12.0659 48.5551 12.0659 47.9498C12.0659 47.4039 12.1155 47.3052 12.3456 47.3942C12.4996 47.4536 13.1292 47.574 13.7447 47.6618ZM72.2562 47.6484C73.3253 47.7976 75.3225 47.6652 76.0102 47.3995C76.2667 47.3004 76.3039 47.4062 76.3039 48.2343C76.3039 48.7559 76.3734 49.3667 76.4584 49.5919C76.5945 49.9522 76.5109 50.0896 75.7584 50.7422C74.2173 52.0788 72.9362 52.1966 71.5946 51.1255C70.4769 50.233 70.3236 49.9972 70.5211 49.4743C70.6171 49.2197 70.6958 48.6339 70.6958 48.1724C70.6958 47.5735 70.7567 47.3558 70.9082 47.4116C71.0252 47.4546 71.6317 47.5612 72.2562 47.6484ZM5.85535 56.6403L5.43814 57.0602V61.5834C5.43814 65.7478 5.46329 66.138 5.7561 66.5019C5.9862 66.7882 6.25046 66.8973 6.7127 66.8973C7.17495 66.8973 7.43921 66.7882 7.66931 66.5019C7.96195 66.1381 7.98727 65.7485 7.98727 61.6142C7.98727 57.3285 7.97112 57.1013 7.63498 56.6711C7.1746 56.0816 6.42295 56.0686 5.85535 56.6403ZM79.3753 58.3822C79.0439 58.8062 79.023 59.0497 79.023 62.4698C79.023 65.7682 79.0525 66.1433 79.3409 66.5019C79.7828 67.0513 80.8123 67.0513 81.2541 66.5019C81.5425 66.1433 81.5721 65.7682 81.5721 62.4698C81.5721 59.0497 81.5512 58.8062 81.2198 58.3822C80.9644 58.0552 80.711 57.9313 80.2975 57.9313C79.8841 57.9313 79.6307 58.0552 79.3753 58.3822ZM29.1851 59.1718C28.6773 59.5601 28.5502 60.3195 28.5502 62.9646C28.5502 65.8252 28.6898 66.511 29.3315 66.8053C29.9246 67.0773 30.1388 67.0515 30.6516 66.6453L31.0994 66.2908V62.9964C31.0994 59.7741 31.0907 59.6939 30.7061 59.3299C30.2677 58.9154 29.61 58.8469 29.1851 59.1718ZM56.2803 59.3539C55.9275 59.732 55.9109 59.898 55.9109 63.0204V66.2908L56.3587 66.6453C56.6049 66.8404 56.9072 67 57.0304 67C57.533 67 58.1138 66.5801 58.2816 66.0954C58.519 65.4096 58.5117 60.5272 58.2722 59.8354C57.9485 58.9006 56.9326 58.6551 56.2803 59.3539Z" fill="#6141B8"/>
</svg>
