<svg width="87" height="87" viewBox="0 0 87 87" fill="none" xmlns="http://www.w3.org/2000/svg">
<path fill-rule="evenodd" clip-rule="evenodd" d="M41.4162 0.11127C37.79 0.911914 34.9513 3.4468 33.6928 7.00816C33.3197 8.06366 33.2766 8.51005 33.2802 11.2708C33.2836 13.9343 33.3373 14.514 33.6736 15.5256C33.8876 16.1697 34.0436 16.716 34.0202 16.7394C33.9554 16.8045 31.6744 17.163 31.3158 17.1644C31.1028 17.1655 29.8725 15.469 27.5346 11.951C25.6285 9.08287 23.7367 6.39054 23.3305 5.96827C21.4354 3.99768 18.241 4.35682 16.7915 6.70361C16.1677 7.71358 15.9761 9.14091 16.3231 10.1931C16.6527 11.193 25.0095 23.6748 25.834 24.3987C27.2338 25.6278 28.5118 25.861 31.0876 25.3571C32.0842 25.1621 32.9104 25.0147 32.9236 25.0294C32.9366 25.0442 32.6715 26.9682 32.3345 29.305C31.5674 34.6213 31.5383 34.539 34.3219 34.9266C35.0989 35.0347 35.8102 35.1232 35.9026 35.1232C35.9952 35.1232 36.0707 35.876 36.0707 36.7961V38.4691L31.8251 42.7366C29.0991 45.4766 27.5353 47.1831 27.4563 47.5042C27.3015 48.1321 27.7131 48.8007 28.5633 49.3028L29.1833 49.669L28.3913 50.6039C27.0277 52.2132 26.7454 52.9324 26.7418 54.8037C26.7387 56.3914 26.8049 56.6497 29.1467 64.209L31.5546 71.9818L30.7127 73.0056C28.7668 75.3718 28.0833 78.0255 28.7209 80.7396C28.9904 81.8861 29.6121 82.6467 30.2796 82.6467C30.866 82.6467 41.2124 78.1282 41.5522 77.7238C41.7267 77.5162 41.8665 77.1309 41.8633 76.8675C41.86 76.6043 40.6039 72.0219 39.0718 66.6846L36.2864 56.9804L37.9522 55.2967L39.618 53.6133L41.2419 53.9864C42.1351 54.1917 43.046 54.3991 43.266 54.4471C43.6646 54.5344 43.6635 54.5407 43.0203 56.0297C41.1557 60.3449 40.9049 61.1031 40.9038 62.4264C40.9029 63.6426 41.0201 63.9945 43.486 70.1798L46.069 76.6593L45.5116 77.566C44.6002 79.0491 44.1854 80.5301 44.1903 82.2839C44.1977 84.924 45.1012 87 46.2428 87C46.8286 87 57.1631 82.4829 57.4981 82.0804C57.6724 81.8709 57.8152 81.4974 57.8152 81.2506C57.8152 81.0035 56.2188 76.9638 54.2674 72.2733L50.7196 63.745L52.305 59.5011L53.8903 55.2572L55.1733 55.242C57.4332 55.2149 58.5547 55.0067 58.9285 54.5445C59.1135 54.3158 59.2648 53.9022 59.2648 53.6253C59.2648 53.2908 57.806 50.6853 54.9159 45.8588L50.5671 38.5957V36.7896V34.9835L51.588 34.856C52.3227 34.7641 52.7357 34.6014 53.0613 34.2754C53.4625 33.8736 53.5022 33.7164 53.4107 32.8856C53.354 32.3705 53.2514 31.6632 53.1827 31.3141C53.068 30.7315 53.3319 30.9498 56.3879 33.9665C58.2193 35.7746 59.8815 37.3381 60.0813 37.441C60.9932 37.9102 69.3499 39.6925 72.6022 40.1115C76.7818 40.6499 77.3856 40.5605 78.6194 39.2206C79.8965 37.8337 80.0672 36.0423 79.0753 34.4354C78.2673 33.1263 77.528 32.8076 74.8246 32.6028L72.5607 32.4312L68.495 30.7676L64.4292 29.1037L60.671 24.6945L56.9128 20.2855L57.3691 19.2875C58.0368 17.8277 58.1379 16.2459 57.6632 14.6819C57.3607 13.685 57.0556 13.1637 56.1909 12.1663C54.4937 10.2087 53.8441 9.16649 53.105 7.21549C52.023 4.359 50.8945 2.89611 48.6789 1.4773C47.2264 0.547325 45.6613 0.0795276 43.7719 0.0106004C42.8749 -0.0220493 41.8149 0.0232972 41.4162 0.11127ZM45.1998 3.11033C46.5769 3.4693 47.6234 4.09907 48.6258 5.1718C49.5661 6.17795 49.8484 6.67913 50.5005 8.49971C51.1451 10.2994 52.1283 11.9212 53.544 13.5196C55.0962 15.2722 55.4148 16.3641 54.8128 17.8696L54.5287 18.5809L51.3098 17.5051L48.0911 16.4292L48.5589 15.484C49.0004 14.5925 49.0301 14.3563 49.0835 11.3208L49.1403 8.10284L48.684 7.6461L48.2279 7.18955H43.4039H38.5797L38.0319 7.73788L37.4839 8.2864L37.553 11.3203C37.6133 13.978 37.6718 14.4641 38.0241 15.239C38.2454 15.7256 38.4264 16.159 38.4264 16.2021C38.4264 16.2455 38.1207 16.2555 37.7469 16.2245C37.1 16.1709 37.0467 16.116 36.6352 15.0799C36.1155 13.771 35.9111 10.6363 36.2331 8.91273C37.032 4.63598 41.0584 2.03053 45.1998 3.11033ZM75.392 4.28735V5.73845H76.8416H78.2913V4.28735V2.83625H76.8416H75.392V4.28735ZM71.0431 8.64065V10.0917H72.4927H73.9424V8.64065V7.18955H72.4927H71.0431V8.64065ZM79.7409 8.64065V10.0917H81.1905H82.6401V8.64065V7.18955H81.1905H79.7409V8.64065ZM20.815 7.6695C21.0678 7.73716 21.5934 8.31578 22.1438 9.13239C23.1657 10.6482 23.2236 10.3776 21.6286 11.5414L20.8674 12.0968L19.9525 10.7397C18.9265 9.21764 18.8294 8.65117 19.4824 7.99763C19.949 7.53038 20.13 7.48576 20.815 7.6695ZM46.2182 11.9695C46.2182 13.6181 46.1685 13.9205 45.8104 14.4469C44.8626 15.841 43.3017 16.2658 41.9599 15.4949C40.8311 14.8463 40.4196 13.8528 40.4196 11.7765V10.0917H43.3189H46.2182V11.9695ZM75.392 12.9939V14.445H76.8416H78.2913V12.9939V11.5428H76.8416H75.392V12.9939ZM27.0105 16.4374C28.5491 18.771 29.4282 19.9371 29.7511 20.0735C30.1229 20.2308 30.9532 20.1716 33.5563 19.8025C35.3878 19.5428 37.0394 19.3126 37.227 19.291C37.4914 19.2607 37.6153 19.4379 37.7797 20.0809C38.4344 22.6434 40.3464 24.2253 42.9795 24.3827C44.7861 24.4908 45.9047 24.1241 47.1289 23.0223C48.0059 22.2329 48.9362 20.7622 48.9362 20.1647C48.9362 20.0118 48.9973 19.8867 49.0719 19.8867C49.1466 19.8867 50.3215 20.2583 51.6829 20.7125L54.1583 21.5384L58.2309 26.2902C60.4708 28.9036 62.4963 31.2136 62.732 31.4231C63.0737 31.7269 65.9808 32.9691 69.7332 34.4145L70.1449 34.5731L69.4811 35.5736C69.116 36.1241 68.7748 36.5743 68.7228 36.5743C68.671 36.5743 67.0312 36.1992 65.0791 35.7407L61.5299 34.9068L56.3583 29.7549C52.7797 26.1895 51.0661 24.6027 50.7948 24.6027C50.1528 24.6027 49.5173 24.9811 49.308 25.4879C49.1511 25.8674 49.2354 26.5779 49.7264 29.0155C50.1514 31.1249 50.2782 32.0882 50.1371 32.133C49.5121 32.3322 45.3312 32.5838 42.649 32.5838C39.8727 32.5838 36.6013 32.3763 35.3349 32.1198L34.8708 32.0258L35.4972 27.6158C35.8417 25.1903 36.0696 22.9906 36.0037 22.7276C35.9377 22.4645 35.6719 22.1103 35.4128 21.9405C34.9623 21.6449 34.8108 21.6574 31.9034 22.2287C28.9804 22.8032 28.8407 22.8144 28.2317 22.5251C27.7265 22.2852 27.0999 21.4756 25.1305 18.5176C23.7731 16.4788 22.6421 14.7349 22.6169 14.642C22.5741 14.4846 24.4166 12.989 24.6424 12.9981C24.6991 13.0003 25.7648 14.5481 27.0105 16.4374ZM70.0401 18.2455C69.3468 18.5268 69.1792 18.9405 69.135 20.4814C69.0881 22.1166 68.8382 22.8654 67.9789 23.9476C67.2898 24.8153 67.2519 25.5403 67.8639 26.1527C68.8795 27.1696 70.2056 26.3851 71.2511 24.1485C72.0618 22.4145 72.3117 20.6385 71.9355 19.2826C71.7871 18.7474 71.6016 18.529 71.127 18.3304C70.7883 18.1887 70.4881 18.0781 70.46 18.0842C70.4319 18.0906 70.2429 18.1631 70.0401 18.2455ZM42.9565 18.7456C43.5046 18.7978 44.2655 18.7541 44.6473 18.6485C45.4274 18.433 46.2182 18.669 46.2182 19.1174C46.2182 19.6723 45.5939 20.6539 44.9724 21.0767C43.3805 22.1596 40.9493 21.2034 40.5329 19.3305C40.4475 18.9462 40.5157 18.8308 40.9228 18.6699C41.1943 18.5627 41.5386 18.5145 41.6881 18.5627C41.8375 18.6111 42.4083 18.6933 42.9565 18.7456ZM75.0937 19.6597C74.3803 19.7806 74.0292 20.3793 74.0716 21.4025C74.1337 22.8997 73.8168 24.0642 73.0318 25.2218C72.1983 26.4513 72.1367 26.9836 72.7564 27.6038C73.7572 28.6058 74.9848 27.933 76.0231 25.8139C77.3403 23.1253 77.3417 20.2904 76.0262 19.7976C75.7272 19.6855 75.3075 19.6235 75.0937 19.6597ZM7.94425 24.7956C7.77284 24.8957 7.24825 25.7224 6.77839 26.633C5.53714 29.0387 4.22794 30.3683 2.02921 31.4557C0.128023 32.396 -0.226593 32.8317 0.115701 33.8062C0.251785 34.1934 0.673628 34.4925 2.02921 35.1629C4.22396 36.2485 5.50018 37.5465 6.80629 40.0218C7.79349 41.8926 8.24197 42.2463 9.20725 41.9149C9.59176 41.7827 9.90851 41.3504 10.5953 40.0207C11.816 37.6557 13.3255 36.1435 15.5238 35.0826C17.2857 34.2321 17.6399 33.78 17.3036 32.8105C17.1686 32.4214 16.7774 32.1412 15.5238 31.5361C13.3461 30.4851 11.8291 28.9658 10.6402 26.6459C10.168 25.7244 9.62728 24.8877 9.43846 24.7867C9.00647 24.5552 8.34961 24.5592 7.94425 24.7956ZM9.40657 30.2239C9.98987 31.0848 10.9242 32.0345 12.0478 32.9086L12.578 33.3211L12.1384 33.6262C11.278 34.2235 9.99874 35.5204 9.40367 36.3987C9.07134 36.8892 8.75877 37.2882 8.70894 37.2853C8.6591 37.2826 8.27876 36.8034 7.8638 36.2206C7.44866 35.6376 6.61857 34.7646 6.01896 34.2805C5.41936 33.7962 4.92866 33.3592 4.92866 33.3093C4.92866 33.2595 5.41936 32.8225 6.01896 32.3382C6.61857 31.8541 7.44866 30.981 7.8638 30.3981C8.27876 29.8153 8.6591 29.336 8.70894 29.3333C8.75877 29.3304 9.07261 29.7313 9.40657 30.2239ZM47.6678 36.4836V37.6626H43.3189H38.97V36.5779V35.4932L42.8206 35.4405C44.9385 35.4114 46.8955 35.369 47.1695 35.3461C47.6662 35.3048 47.6678 35.3082 47.6678 36.4836ZM75.9195 35.6006C76.5803 35.733 76.9197 36.2382 76.7642 36.858C76.5836 37.5785 76.175 37.6594 74.1141 37.3835C73.0729 37.244 72.1559 37.1274 72.0763 37.1243C71.9968 37.121 72.1841 36.7512 72.4927 36.3022L73.0537 35.486H74.2002C74.8308 35.486 75.6044 35.5375 75.9195 35.6006ZM51.8097 46.3545C53.7175 49.5388 55.2784 52.2025 55.2784 52.2736C55.2784 52.5005 47.6469 52.2155 45.7992 51.9197C40.9843 51.1486 36.8298 49.9095 32.3696 47.9143L31.2958 47.434L34.7235 43.9994L38.151 40.5648H43.246H48.3411L51.8097 46.3545ZM15.9105 46.5659C14.9806 47.108 14.3025 49.9545 14.6372 51.9108C15.0511 54.3294 15.975 55.4128 17.1931 54.9079C18.0694 54.5445 18.2414 53.8605 17.7869 52.546C17.5778 51.9414 17.4067 51.1208 17.4067 50.7225C17.4067 50.3242 17.5778 49.5036 17.7869 48.899C18.102 47.9876 18.1308 47.7122 17.9558 47.2892C17.6325 46.508 16.6225 46.1508 15.9105 46.5659ZM20.7614 46.804C19.3552 48.2114 19.3552 53.2336 20.7614 54.641C21.3468 55.2273 22.1764 55.2153 22.7791 54.612C23.2971 54.0934 23.2919 53.8348 22.7234 51.8562C22.4098 50.765 22.4098 50.6801 22.7234 49.5889C23.2919 47.6103 23.2971 47.3516 22.7791 46.833C22.1764 46.2297 21.3468 46.2178 20.7614 46.804ZM33.6508 51.6113C34.3339 51.9006 35.2388 52.24 35.6616 52.3652L36.4302 52.593L34.9127 54.1689C34.078 55.0355 33.3418 55.9127 33.2766 56.1181C33.2039 56.3475 33.6843 58.331 34.5225 61.2629C35.2729 63.8873 35.8263 66.0889 35.7522 66.1557C35.5697 66.3202 33.1639 67.1011 33.0872 67.0207C32.8468 66.7691 29.5474 55.4484 29.5474 54.8752C29.5474 54.4767 29.6784 53.8897 29.8386 53.5703C30.1829 52.8836 31.8882 51.0853 32.195 51.0853C32.3126 51.0853 32.9676 51.322 33.6508 51.6113ZM77.5266 52.3664C77.3552 52.4666 76.8306 53.2933 76.3607 54.2039C75.1195 56.6096 73.8103 57.9392 71.6115 59.0266C70.2559 59.697 69.8341 59.9961 69.698 60.3834C69.3557 61.3578 69.7103 61.7935 71.6115 62.7338C73.8063 63.8194 75.0825 65.1174 76.3886 67.5926C77.3769 69.4656 77.8257 69.819 78.7896 69.4832C79.1712 69.3505 79.4984 68.907 80.1877 67.589C81.4322 65.2096 82.9355 63.7012 85.1062 62.6535C86.3597 62.0484 86.7509 61.7681 86.8859 61.379C87.2223 60.4095 86.868 59.9575 85.1062 59.107C82.9284 58.056 81.4114 56.5367 80.2225 54.2168C79.7503 53.2953 79.2096 52.4586 79.0208 52.3575C78.5888 52.1261 77.9319 52.1301 77.5266 52.3664ZM50.7109 55.3522C50.7401 55.3753 50.0675 57.253 49.216 59.5251C48.3645 61.7969 47.6678 63.7269 47.6678 63.8136C47.6678 63.9003 48.2348 65.3367 48.9277 67.0057C49.6206 68.6748 50.2117 70.1518 50.2414 70.2882C50.2891 70.5079 49.5166 70.8464 47.5201 71.4807C47.1968 71.5833 46.9904 71.1676 45.4796 67.3713C44.1898 64.1307 43.8018 62.9576 43.8127 62.3313C43.8228 61.7433 44.1948 60.6529 45.1432 58.4315C45.8672 56.7355 46.5211 55.2657 46.5963 55.1652C46.6867 55.0444 47.3983 55.0383 48.6954 55.1466C49.7746 55.2367 50.6816 55.3294 50.7109 55.3522ZM78.9889 57.7948C79.5722 58.6557 80.5065 59.6054 81.6301 60.4795L82.1603 60.892L81.7207 61.1971C80.8604 61.7944 79.5811 63.0913 78.986 63.9696C78.6537 64.4601 78.3411 64.8591 78.2913 64.8562C78.2414 64.8535 77.8611 64.3743 77.4461 63.7915C77.031 63.2085 76.2009 62.3355 75.6013 61.8514C75.0017 61.3671 74.511 60.9301 74.511 60.8802C74.511 60.8303 75.0017 60.3934 75.6013 59.9091C76.2009 59.4249 77.031 58.5519 77.4461 57.9689C77.8611 57.3862 78.2414 56.9069 78.2913 56.9042C78.3411 56.9013 78.6549 57.3022 78.9889 57.7948ZM13.0578 63.7824V65.2335H11.6082H10.1586V66.6846V68.1357H11.6082H13.0578V69.5868V71.0379H14.5075H15.9571V69.5868V68.1357H17.4067H18.8564V66.6846V65.2335H17.4067H15.9571V63.7824V62.3313H14.5075H13.0578V63.7824ZM15.9571 66.6846V68.1357H14.5075H13.0578V66.6846V65.2335H14.5075H15.9571V66.6846ZM37.6746 72.3002C38.1877 74.0919 38.6076 75.6707 38.6076 75.8086C38.6076 75.962 37.2529 76.6359 35.1194 77.5435C33.2008 78.3596 31.5607 79.0257 31.4747 79.0233C31.2166 79.0162 31.5368 77.3623 31.9911 76.3556C32.2245 75.8387 32.9116 74.8817 33.5183 74.2291C34.769 72.8833 34.8309 72.6124 34.2656 70.9673C34.0016 70.199 33.9666 69.912 34.1297 69.8518C35.2191 69.4493 36.3788 69.0668 36.542 69.0559C36.6519 69.0486 37.1616 70.5086 37.6746 72.3002ZM52.0732 74.528C52.3255 75.1523 52.9783 76.7344 53.5238 78.0435L54.5155 80.4236L50.8769 81.9854C48.8757 82.8442 47.2054 83.5141 47.1653 83.474C46.9875 83.2959 47.1345 81.0307 47.3664 80.3723C47.5074 79.9723 47.9592 79.1242 48.3701 78.4875C49.2214 77.169 49.2615 76.8588 48.7481 75.5548C48.5448 75.039 48.4073 74.5311 48.4422 74.426C48.51 74.2225 51.3031 73.2191 51.4984 73.3279C51.5622 73.3637 51.8208 73.9036 52.0732 74.528Z" fill="#6141B8"/>
</svg>
