<svg width="74" height="82" viewBox="0 0 74 82" fill="none" xmlns="http://www.w3.org/2000/svg">
<path fill-rule="evenodd" clip-rule="evenodd" d="M21.7101 0.133069C20.6431 0.385731 19.0881 1.29894 18.3313 2.11761C17.9464 2.53404 17.387 3.38879 17.0887 4.01668L16.546 5.15862L16.499 21.4264L16.4519 37.6941L15.1505 39.1196C9.61144 45.1859 5.60284 52.6663 3.61732 60.6413C3.129 62.6033 0 80.0613 0 80.8246C0 81.347 0.762146 82 1.37169 82C2.52391 82 2.54603 81.9304 3.92287 73.9654C5.74944 63.3989 6.21273 61.1868 7.25985 58.0349C8.30096 54.9009 9.35476 52.4662 10.7607 49.9471C11.9373 47.839 14.0403 44.7242 15.4221 43.0425L16.4603 41.7794V47.1559C16.4603 52.2652 16.4771 52.5504 16.7974 52.8931C16.9829 53.0916 17.2972 53.3054 17.4959 53.3683C18.0024 53.5285 18.7798 53.1663 19.0099 52.6627C19.1509 52.3544 19.2037 45.9668 19.2037 29.2314C19.2037 11.667 19.2531 6.05746 19.4122 5.52034C19.6905 4.58132 21.1108 3.16518 22.0527 2.88773C23.0718 2.58755 59.2296 2.58755 60.2488 2.88773C61.1906 3.16518 62.611 4.58132 62.8893 5.52034C63.0431 6.03917 63.0978 8.96906 63.0978 16.6747V27.1255H62.5894C61.6724 27.1255 58.6146 27.791 57.8617 28.1543C56.9401 28.5991 55.8073 29.8087 55.3311 30.8563C55.0571 31.4594 54.9685 31.9914 54.9705 33.0232C54.9733 34.519 55.2979 35.4322 56.2167 36.5296L56.7004 37.1072L56.1198 37.8654C55.2334 39.0235 54.9911 39.7148 54.9712 41.1433C54.9434 43.1444 55.7558 44.6606 57.4363 45.7433L58.4227 46.3791L58.0603 47.052C57.7695 47.5916 57.6997 48.0123 57.7072 49.1779C57.7175 50.7699 58.0212 51.6361 58.9711 52.7851C59.5959 53.5408 61.2095 54.4089 62.2834 54.567L63.0978 54.687V62.4688C63.0978 68.0786 63.0397 70.4468 62.8893 70.954C62.611 71.893 61.1906 73.3092 60.2488 73.5866C59.7181 73.7428 55.7966 73.7945 44.439 73.7945H29.3352L29.5623 73.1526C29.6872 72.7994 29.9219 71.7033 30.0838 70.7165C30.6652 67.1712 31.0649 66.1156 32.0425 65.5418C32.3832 65.3419 34.1008 65.0048 37.0696 64.5552C43.365 63.6018 44.3929 63.2442 46.1785 61.3863C48.1284 59.3575 49.0157 55.8885 48.1573 53.6494C48.0617 53.3996 47.9662 52.5298 47.9452 51.7168C47.9113 50.3983 47.8388 50.1005 47.275 48.963C46.5123 47.4246 45.5129 46.4516 43.925 45.7016C42.8878 45.2117 42.6258 45.1608 41.1507 45.1623C39.7329 45.1638 39.3902 45.2254 38.5051 45.637C36.2123 46.7036 34.9718 48.2963 34.3936 50.9154C34.2981 51.3486 34.2278 51.3763 32.9638 51.4794C30.0344 51.7182 26.7178 52.3633 24.9905 53.0304C24.7059 53.1403 24.6904 52.2204 24.6904 35.1707V17.1949L24.2695 16.7754C23.7128 16.2202 22.9247 16.2202 22.368 16.7754L21.9471 17.1949V35.7146V54.2345L20.361 54.8964C16.5153 56.5018 14.1114 58.0053 12.2477 59.9711C9.56549 62.8001 7.73222 66.4651 7.12165 70.2189C6.72369 72.666 6.76484 73.7167 7.27939 74.2295C7.82396 74.7726 8.62451 74.7844 9.15313 74.2574C9.48696 73.9246 9.5636 73.6179 9.66185 72.225C9.95968 68.0003 11.7304 64.2636 14.8005 61.3805C15.5896 60.6395 16.7681 59.7184 17.4195 59.3338C19.1601 58.3055 25.3379 55.7278 27.4254 55.1585C29.871 54.4916 30.8233 54.3764 38.0226 53.8759C43.7588 53.4772 44.2797 53.4648 44.766 53.7155C46.5345 54.6272 45.7857 58.485 43.5233 60.1191C42.4429 60.8993 41.6982 61.0897 36.8272 61.8313C34.3077 62.2148 31.9009 62.6461 31.4786 62.7895C31.0561 62.9329 30.3579 63.3599 29.9269 63.7383C28.53 64.9641 28.1065 66.0144 27.4522 69.8748C27.2699 70.9494 26.9573 72.2629 26.7574 72.7937C25.9426 74.9564 24.1896 76.9538 22.159 78.0328C20.9723 78.6636 18.8163 79.2648 17.742 79.2648C16.7159 79.2648 16.1174 79.7688 16.1174 80.6324C16.1174 81.1468 16.2208 81.3733 16.5889 81.6648C17.003 81.9928 17.2068 82.0275 18.2606 81.9497C21.7123 81.6952 25.396 79.8066 27.2624 77.335L27.8625 76.5403L36.0069 76.543L44.1513 76.5457L43.2083 77.0449C41.0648 78.1791 36.6423 79.2648 34.1649 79.2648C32.9969 79.2648 32.4062 79.7242 32.4062 80.6324C32.4062 81.1465 32.5099 81.3738 32.8777 81.666C33.317 82.015 33.4705 82.0335 35.118 81.9359C39.6379 81.6678 44.3488 80.0214 47.9338 77.457L49.201 76.5507L54.9062 76.4973L60.6116 76.4442L61.757 75.9031C63.3507 75.1504 64.3438 74.1812 65.1151 72.6257L65.7555 71.3342L65.8059 63.0134L65.8563 54.6927L66.6131 54.5893C68.3356 54.3539 70.0176 53.1119 70.8225 51.4812C71.4127 50.2854 71.4185 48.0992 70.8345 46.9152C70.3292 45.8909 69.3254 44.8541 68.3773 44.3773C67.9726 44.1739 67.6258 43.9947 67.6064 43.9792C67.587 43.9634 67.7766 43.5306 68.028 43.0171C68.4102 42.236 68.4834 41.8603 68.4764 40.7159C68.4668 39.1897 68.247 38.5473 67.3195 37.3359L66.7264 36.5612L67.1448 36.1692C67.3749 35.9536 67.7734 35.35 68.0302 34.8276C68.4241 34.0267 68.4959 33.664 68.4882 32.5104C68.4772 30.8416 68.0484 29.8294 66.8408 28.6213C66.3943 28.1746 66.0504 27.8093 66.0766 27.8093C66.1027 27.8093 67.0056 27.6536 68.083 27.4631C71.3034 26.894 72.6271 26.0477 73.602 23.9339C74.1461 22.7538 74.13 20.6854 73.5681 19.6038C72.8987 18.3155 72.2511 17.635 71.1241 17.0361C70.1877 16.5385 69.8793 16.4624 68.7586 16.4525C68.0499 16.4464 67.1083 16.5069 66.6661 16.5872L65.8621 16.7334L65.8088 10.9365L65.7555 5.13964L65.1151 3.84847C64.3438 2.29318 63.3505 1.3239 61.757 0.571211L60.6116 0.0301585L41.4937 0.00280672C30.3151 -0.0132624 22.0993 0.0409281 21.7101 0.133069ZM22.368 5.83472C21.5174 6.68262 22.1201 8.15022 23.3188 8.15022C24.0236 8.15022 24.6904 7.4854 24.6904 6.78263C24.6904 6.07986 24.0236 5.41504 23.3188 5.41504C22.9847 5.41504 22.6333 5.57009 22.368 5.83472ZM27.8548 5.83472C27.0041 6.68262 27.6068 8.15022 28.8055 8.15022C29.5104 8.15022 30.1772 7.4854 30.1772 6.78263C30.1772 6.07986 29.5104 5.41504 28.8055 5.41504C28.4715 5.41504 28.12 5.57009 27.8548 5.83472ZM33.3415 5.83472C33.0711 6.10413 32.9206 6.44859 32.9206 6.79784C32.9206 7.85789 32.5245 8.72751 31.6405 9.60909C30.4613 10.7847 30.0226 10.8854 26.0774 10.8854C22.8145 10.8854 22.7855 10.8886 22.368 11.3051C21.8051 11.8661 21.8109 12.6457 22.3821 13.2151L22.8172 13.6488L26.6257 13.592L30.4344 13.5351L31.5798 12.994C33.1303 12.2617 34.1592 11.2741 34.8907 9.81662C35.2216 9.15693 35.4925 8.51211 35.4925 8.38373C35.4925 8.18885 37.3193 8.15022 46.5518 8.15022H57.611V16.1525C57.611 23.9551 57.6198 24.1642 57.9588 24.5269C58.6014 25.2148 59.5522 25.1617 60.1346 24.4052C60.2925 24.2001 60.3448 21.9519 60.3489 15.1942L60.3544 6.25423L59.9335 5.83472L59.5127 5.41504H46.6375H33.7623L33.3415 5.83472ZM38.2349 19.2434C36.6159 19.7616 35.4049 21.0743 35.0639 22.6808C34.7686 24.0719 34.3257 24.4377 32.7057 24.6295C31.2528 24.8013 29.9567 25.7268 29.2105 27.1255C28.9199 27.6702 28.8912 28.1767 28.8912 32.7668C28.8912 37.6112 28.9058 37.8366 29.2619 38.4936C29.699 39.2996 30.5397 40.1243 31.3774 40.5686C31.9253 40.8592 32.5187 40.8913 38.1929 40.9376L44.4082 40.9882L44.837 40.5607C45.4018 39.9976 45.405 39.2153 44.8449 38.6568L44.4241 38.2372H38.6639C32.4148 38.2372 32.1658 38.2035 31.7538 37.3017C31.4328 36.5993 31.4705 28.7981 31.798 28.1668C32.0789 27.6254 32.6312 27.3691 33.8213 27.2282C35.6492 27.012 37.2099 25.5995 37.6176 23.792C38.0166 22.0237 38.3717 21.8261 41.1507 21.8261C43.9298 21.8261 44.2842 22.0232 44.684 23.792C45.0938 25.6037 46.648 27.0115 48.4778 27.2281C49.6703 27.3691 50.2224 27.625 50.5034 28.1668C50.8309 28.7981 50.8687 36.5993 50.5477 37.3017C50.3118 37.8182 49.5974 38.2372 48.9529 38.2372C48.7082 38.2372 48.3187 38.4261 48.0872 38.6568C47.521 39.2213 47.5301 39.9973 48.1097 40.5752C48.5068 40.9711 48.6477 41.0074 49.462 40.9236C50.9865 40.7667 52.2853 39.8846 53.0395 38.4936C53.3957 37.8366 53.4102 37.6112 53.4102 32.7668C53.4102 28.1767 53.3816 27.6702 53.091 27.1255C52.3448 25.7268 51.0487 24.8013 49.5957 24.6295C47.9758 24.4377 47.5334 24.0722 47.2373 22.6808C46.9568 21.3621 46.0252 20.1688 44.7514 19.4961C44.2497 19.2311 43.7014 19.1732 41.4079 19.1426C39.8991 19.1224 38.4711 19.1677 38.2349 19.2434ZM70.0871 19.5477C70.9609 20.1982 71.2422 20.7532 71.2422 21.8261C71.2422 22.8911 70.9602 23.4546 70.1104 24.0871C69.7959 24.3211 66.5824 25.0741 65.8979 25.0741C65.8667 25.0741 65.8412 23.8156 65.8412 22.2774V19.4805L66.9128 19.3008C68.3865 19.0535 69.5442 19.1436 70.0871 19.5477ZM39.8029 26.8087C37.8383 27.3725 36.3498 29.356 36.3498 31.4107C36.3498 33.3833 37.8424 35.4003 39.7009 35.9389C43.4598 37.0284 46.7968 33.7014 45.7041 29.9537C45.3102 28.6028 44.0037 27.2727 42.6881 26.8833C41.6761 26.5836 40.6779 26.5578 39.8029 26.8087ZM42.5922 30.0222C43.0425 30.4713 43.1225 30.679 43.1225 31.3992C43.1225 32.1292 43.0445 32.3253 42.562 32.8063C42.0795 33.2873 41.8829 33.3651 41.1507 33.3651C40.4186 33.3651 40.2219 33.2873 39.7394 32.8063C39.2588 32.3271 39.1789 32.1278 39.1789 31.4097C39.1789 30.531 39.616 29.8364 40.3792 29.5022C41.0203 29.2215 42.0261 29.4578 42.5922 30.0222ZM64.4712 30.2453C65.4137 30.8848 65.7555 31.483 65.7555 32.4928C65.7555 33.4923 65.2608 34.4105 64.4717 34.8751C63.9714 35.1698 61.3153 35.6716 60.2512 35.6724C59.3046 35.6731 58.4814 35.1015 57.9809 34.0963C57.436 33.0012 57.5822 32.1129 58.4623 31.172C59.0354 30.5597 59.2547 30.4564 60.543 30.1913C62.6481 29.7581 63.7761 29.7737 64.4712 30.2453ZM64.4712 38.4509C65.4137 39.0904 65.7555 39.6885 65.7555 40.6983C65.7555 41.6978 65.2608 42.616 64.4717 43.0807C63.9714 43.3754 61.3153 43.8771 60.2512 43.878C59.0141 43.8788 57.8358 42.8075 57.6632 41.5248C57.5479 40.6681 58.0843 39.4439 58.7768 38.983C59.3473 38.6033 61.6495 38.1064 62.9438 38.0833C63.6772 38.0703 64.0384 38.1572 64.4712 38.4509ZM67.319 46.8807C68.2183 47.5511 68.4988 48.0971 68.4988 49.1779C68.4988 50.2586 68.2183 50.8046 67.319 51.4751C66.9181 51.7739 66.5419 51.8365 64.8481 51.886C62.4903 51.9549 61.7767 51.783 61.0646 50.9744C60.1677 49.956 60.1385 48.4664 60.9957 47.4508C61.7407 46.5682 62.2391 46.4372 64.672 46.4853C66.56 46.5225 66.9084 46.5745 67.319 46.8807ZM42.3753 48.0088C43.2275 48.2633 44.3267 49.2025 44.7573 50.0442C45.1965 50.9024 45.1914 50.92 44.5371 50.8039C44.2305 50.7494 42.4753 50.8157 40.6364 50.9511C38.7974 51.0865 37.2663 51.1715 37.2337 51.14C37.2011 51.1086 37.2298 50.8321 37.2971 50.526C37.454 49.8136 38.9749 48.2866 39.779 48.0337C40.5906 47.7787 41.5736 47.7693 42.3753 48.0088ZM58.032 55.7517L57.611 56.1712V62.2477V68.3241H45.6867H33.7623L33.3415 68.7438C32.7846 69.2989 32.7846 70.0845 33.3415 70.6396L33.7623 71.0593H46.6375H59.5127L59.9335 70.6396L60.3544 70.2201V63.1957V56.1712L59.9335 55.7517C59.6682 55.4871 59.3167 55.332 58.9827 55.332C58.6487 55.332 58.2972 55.4871 58.032 55.7517Z" fill="#6141B8"/>
</svg>
