<svg width="82" height="77" viewBox="0 0 82 77" fill="none" xmlns="http://www.w3.org/2000/svg">
<path fill-rule="evenodd" clip-rule="evenodd" d="M13.5983 1.08955C7.26018 2.34201 2.10358 7.15877 0.518098 13.3077C-0.943356 18.9753 0.735233 24.9787 4.939 29.1204C7.06964 31.2195 9.70715 32.693 12.9044 33.5701C14.0952 33.8967 14.5408 33.9172 21.6507 33.9714L29.1423 34.0285V40.7276V47.4266L28.3811 46.8511C24.8354 44.1708 19.6324 44.973 17.2771 48.5633C15.8034 50.8098 15.8233 53.6128 17.329 55.8534C17.686 56.3848 19.5716 58.0524 23.4535 61.2698L29.0621 65.9183L29.1423 70.5557C29.2184 74.9579 29.2395 75.2157 29.5597 75.6385C29.7451 75.8835 30.1417 76.226 30.4411 76.3996C30.9747 76.7094 31.2732 76.7154 45.9682 76.7154C60.6632 76.7154 60.9617 76.7094 61.4953 76.3996C61.7947 76.226 62.1913 75.8834 62.3767 75.6382C62.7127 75.1942 62.7142 75.1404 62.7618 61.2711C62.7959 51.3292 62.7573 47.0807 62.6269 46.4087C62.2836 44.6397 61.1378 42.8983 59.6567 41.8943C58.3031 40.9767 57.6542 40.8381 50.8123 40.0046C47.2226 39.5673 44.1234 39.1748 43.925 39.1322C43.5695 39.0561 43.5645 39.0201 43.5645 36.5384V34.0219L55.7032 33.9712L67.8419 33.9207L69.1999 33.5499C77.2311 31.3567 82.4339 24.4047 81.9714 16.4843C81.7267 12.2941 80.0502 8.64742 76.9956 5.66128C74.4436 3.16646 71.7076 1.71791 68.3692 1.09397C67.2514 0.884933 63.696 0.855883 40.8627 0.868829C19.9955 0.88067 14.4271 0.925666 13.5983 1.08955ZM68.1185 5.8951C72.2936 6.94706 75.6851 10.266 76.8417 14.4317C77.2829 16.0204 77.2414 19.0494 76.7575 20.589C75.3846 24.9572 71.921 28.1352 67.5679 29.0211C66.5064 29.2372 64.7355 29.2724 54.9488 29.2724H43.5645V25.5048C43.5645 23.4327 43.4921 21.3546 43.4034 20.8868C43.0025 18.7701 41.4738 16.8553 39.4037 15.8771C38.3605 15.384 38.0199 15.3035 36.7426 15.2486C33.1239 15.0926 30.2839 17.1264 29.3879 20.5156C29.1991 21.2295 29.1423 22.3516 29.1423 25.3586V29.2724H22.4051C16.8681 29.2724 15.448 29.2276 14.4332 29.0211C11.9787 28.5217 9.88487 27.3557 8.10628 25.4983C6.81277 24.1471 6.0274 22.848 5.38224 20.9914C4.92938 19.6881 4.88515 19.3826 4.8789 17.5103C4.87105 15.2135 5.08947 14.1772 5.9766 12.3003C7.41145 9.26442 10.465 6.76818 13.7954 5.90852C14.9173 5.61897 15.9223 5.60744 40.9348 5.59908C66.0856 5.59071 66.9476 5.60002 68.1185 5.8951ZM63.996 10.508C63.8197 10.6023 61.8191 12.4999 59.55 14.7245L55.4244 18.7696L53.7009 17.0915C52.7531 16.1685 51.82 15.3346 51.6275 15.2383C51.0721 14.9604 49.9516 15.0299 49.372 15.3782C48.3759 15.9764 47.9758 17.1027 48.3798 18.1711C48.5721 18.6799 53.6785 23.8099 54.3331 24.152C54.8877 24.4418 55.9569 24.4421 56.5125 24.1525C56.7504 24.0286 59.2634 21.6307 62.0971 18.8241C67.5479 13.425 67.6029 13.3556 67.3724 12.146C67.2502 11.5038 66.7641 10.8718 66.1531 10.5605C65.6195 10.2886 64.4585 10.2603 63.996 10.508ZM37.5866 20.2663C38.7353 20.9564 38.668 20.2972 38.7571 31.7404C38.8361 41.9003 38.8417 42.0438 39.1745 42.4835C39.871 43.4036 40.0109 43.4338 48.4898 44.4838C57.3767 45.5846 57.2192 45.5451 57.7281 46.7982C57.9536 47.3533 57.9867 48.4076 57.9867 55.01V62.5851H45.2575H32.5281L27.1095 58.1084C24.1292 55.6463 21.5614 53.4882 21.4034 53.3127C20.3783 52.174 21.3663 50.3039 23.1397 50.0262C24.3382 49.8387 24.9031 50.1303 27.4632 52.259C30.4108 54.7099 30.6287 54.8477 31.5623 54.8484C32.4651 54.8491 33.2697 54.3659 33.6689 53.5828C33.9301 53.0708 33.9492 51.9685 33.9497 37.4032C33.9501 22.838 33.9692 21.7357 34.2304 21.2237C34.8315 20.0449 36.4497 19.5833 37.5866 20.2663ZM57.9867 69.6897V72.0579H45.9682H33.9497V69.6897V67.3215H45.9682H57.9867V69.6897Z" fill="url(#paint0_linear_360_488)"/>
<defs>
<linearGradient id="paint0_linear_360_488" x1="40.9999" y1="0.866211" x2="40.9999" y2="76.7154" gradientUnits="userSpaceOnUse">
<stop stop-color="#EC5128"/>
<stop offset="1" stop-color="#FDB71B"/>
</linearGradient>
</defs>
</svg>
