<svg width="89" height="88" viewBox="0 0 89 88" fill="none" xmlns="http://www.w3.org/2000/svg">
<path fill-rule="evenodd" clip-rule="evenodd" d="M42.943 0.430721C42.5897 0.667714 42.1176 1.10456 41.8938 1.40185C41.5049 1.91872 41.4872 2.16701 41.4872 7.08297C41.4872 11.9989 41.5049 12.2472 41.8938 12.7641C42.5833 13.6803 43.4859 14.1659 44.4999 14.1659C45.5139 14.1659 46.4166 13.6803 47.106 12.7641C47.4949 12.2472 47.5126 11.9989 47.5126 7.08297C47.5126 2.16701 47.4949 1.91872 47.106 1.40185C46.4166 0.485663 45.5139 0 44.4999 0C43.8717 0 43.3844 0.134768 42.943 0.430721ZM25.6869 1.4679C24.3594 2.11226 23.7044 3.55546 24.0908 4.98488C24.2875 5.71309 24.7973 6.31227 27.5593 9.06065C30.9274 12.4122 31.7531 13.0174 32.9588 13.0174C33.9341 13.0174 35.2348 12.2377 35.6309 11.4156C36.0222 10.6036 36.0397 9.34052 35.6694 8.65271C35.2478 7.86995 28.7379 1.57893 28.1118 1.34921C27.3332 1.06359 26.4284 1.10781 25.6869 1.4679ZM62.5761 1.52475C62.2019 1.72231 60.4392 3.33378 58.6592 5.10567C55.0241 8.72373 54.7135 9.22911 55.181 10.7655C55.4844 11.7629 56.527 12.7683 57.431 12.9352C59.0106 13.2272 59.3187 13.0332 63.0286 9.41231C64.9343 7.55217 66.6179 5.79751 66.7701 5.51323C66.9221 5.22876 67.0465 4.63877 67.0465 4.20212C67.0465 1.89766 64.6208 0.444887 62.5761 1.52475ZM24.7365 15.1367C24.2894 15.3547 23.8014 15.7208 23.6517 15.9501C23.502 16.1796 21.7422 19.8321 19.7412 24.067C15.8799 32.238 15.3336 33.7327 15.0562 36.8816C14.8045 39.7408 15.5734 43.5379 16.9491 46.2307C18.1707 48.6213 20.4433 51.3847 22.1407 52.5432C22.5722 52.8376 22.9252 53.1703 22.9252 53.2823C22.9252 53.3943 21.3941 56.7206 19.5229 60.6743L16.1206 67.8625L9.17289 69.7604C5.35144 70.8041 1.90745 71.8265 1.5191 72.0323C-0.256445 72.9732 -0.531864 75.5102 0.991781 76.8897C1.24251 77.1165 6.53922 79.6363 12.7623 82.4891C24.856 88.0327 24.8927 88.0459 26.3524 87.3637C27.1987 86.9682 27.9787 85.6934 27.9787 84.706C27.9787 84.1671 27.1507 82.1673 24.8714 77.2008L21.764 70.4302L25.18 63.2121C27.0588 59.242 28.6242 55.9656 28.6586 55.9312C28.693 55.8969 29.6194 56.0165 30.7169 56.1973C34.9812 56.8996 39.4442 56.0338 43.3044 53.7557L44.5382 53.0273L45.0537 53.3845C45.6692 53.8111 47.5997 54.7912 48.6658 55.2185C51.4414 56.3311 55.1681 56.7103 58.2829 56.1973C59.3805 56.0165 60.3068 55.8969 60.3412 55.9312C60.3756 55.9656 61.9411 59.242 63.8198 63.2121L67.2358 70.4302L64.1285 77.2008C60.7898 84.4753 60.6812 84.8333 61.4231 86.1182C61.9951 87.1091 62.6834 87.5413 63.8385 87.6357C64.8035 87.7146 65.2097 87.5461 76.1944 82.5141C82.4412 79.6524 87.7573 77.1234 88.008 76.8941C89.5307 75.5008 89.258 72.9835 87.4807 72.026C87.0924 71.8169 83.6486 70.7945 79.8277 69.7541L72.8804 67.8625L69.4777 60.6813C67.6059 56.7317 66.0747 53.4054 66.0747 53.2894C66.0747 53.1736 66.4277 52.8376 66.8591 52.5432C67.878 51.8477 69.7422 49.8789 70.7041 48.4824C72.9491 45.2229 73.938 41.9576 73.9086 37.9035C73.8812 34.1468 73.5349 33.1161 69.2584 24.067C67.257 19.8321 65.4815 16.1748 65.3126 15.9396C64.828 15.2638 63.4472 14.6769 62.6112 14.7912C62.2178 14.845 58.025 16.6645 53.2941 18.8346C48.563 21.0048 44.6117 22.7804 44.5133 22.7804C44.415 22.7804 41.0262 21.2629 36.9826 19.4079C25.4912 14.1367 26.2469 14.4003 24.7365 15.1367ZM32.3973 24.0702C34.8809 25.2033 36.9143 26.1771 36.9163 26.2344C36.918 26.2916 35.9367 26.8085 34.7353 27.383C32.8445 28.2873 32.4923 28.5306 32.1144 29.1933C31.3168 30.5929 31.404 30.8862 34.7023 37.8851C36.3691 41.4224 38.2448 45.2931 38.8705 46.4869L40.0081 48.6571L38.795 49.1989C37.4082 49.8182 35.0439 50.3465 33.6593 50.3465C30.2534 50.3465 26.3295 48.5532 24.2175 46.0317C22.2361 43.6658 21.2975 41.1105 21.3022 38.0949C21.3059 35.5871 21.6196 34.612 24.1182 29.3388C25.3034 26.8372 26.5647 24.1659 26.9206 23.4025C27.2766 22.6391 27.6384 22.0135 27.7247 22.0123C27.811 22.011 29.9136 22.937 32.3973 24.0702ZM64.2511 27.9967C65.7827 31.2342 67.1841 34.4215 67.3653 35.0797C67.8016 36.6636 67.8034 39.5324 67.369 41.1431C66.133 45.7257 62.446 49.1271 57.6844 50.0774C52.9916 51.0139 47.7783 48.9246 45.1771 45.0649C44.7847 44.4824 43.2126 41.3623 41.6839 38.1311L38.9043 32.2562L39.6126 31.909C43.0313 30.233 60.985 22.0569 61.1953 22.0803C61.3496 22.0973 62.667 24.648 64.2511 27.9967ZM17.5501 76.1182C18.0563 77.2371 18.4392 78.1834 18.4009 78.2209C18.3628 78.2584 16.9437 77.6447 15.2473 76.8568C13.551 76.0688 12.1137 75.4168 12.0532 75.408C11.9582 75.394 16.2302 74.1438 16.5219 74.1001C16.5814 74.0913 17.0442 74.9995 17.5501 76.1182ZM75.2099 74.8586C76.8681 75.3276 77.0069 75.4005 76.5705 75.5749C76.3033 75.6815 74.8686 76.3385 73.3823 77.0348C71.896 77.731 70.646 78.2674 70.6046 78.2266C70.5634 78.1859 70.9424 77.2394 71.4474 76.1234C72.3214 74.1907 72.3889 74.0999 72.8643 74.2154C73.1388 74.282 74.1944 74.5714 75.2099 74.8586Z" fill="url(#paint0_linear_360_515)"/>
<defs>
<linearGradient id="paint0_linear_360_515" x1="44.5" y1="0" x2="44.5" y2="87.6698" gradientUnits="userSpaceOnUse">
<stop stop-color="#EC5128"/>
<stop offset="1" stop-color="#FDB71B"/>
</linearGradient>
</defs>
</svg>
