<svg width="77" height="77" viewBox="0 0 77 77" fill="none" xmlns="http://www.w3.org/2000/svg">
<path fill-rule="evenodd" clip-rule="evenodd" d="M36.2321 1.08141C31.4051 2.03867 27.5969 5.85956 26.7556 10.5891C26.4708 12.1897 26.6356 14.5673 27.1385 16.1152L27.5459 17.3693L27.2279 18.3376C26.3788 20.9227 26.4057 23.7295 27.3036 26.1983C27.5403 26.8496 27.5357 26.9033 27.1391 28.1244C26.6356 29.674 26.4707 32.0508 26.7556 33.6522C27.5103 37.8955 30.6531 41.4323 34.9121 42.8312C36.2153 43.2594 36.451 43.2894 38.4872 43.2891C40.5326 43.289 40.7552 43.26 42.0954 42.8204C43.8796 42.2348 45.1479 41.5025 46.4827 40.2868C48.3626 38.5748 49.4892 36.6793 50.0844 34.2267C50.5246 32.413 50.4239 29.9177 49.8385 28.1262L49.4285 26.872L49.7465 25.9038C50.5906 23.3341 50.5906 20.9072 49.7465 18.3376L49.4285 17.3693L49.8385 16.1152C50.4239 14.3236 50.5246 11.8283 50.0844 10.0147C49.4982 7.59925 48.3817 5.69984 46.5621 4.02238C43.8046 1.48025 39.8697 0.360019 36.2321 1.08141ZM40.1964 5.52798C42.2167 6.04654 44.0798 7.43479 44.9844 9.09566C46.4806 11.8425 46.0231 15.3009 43.8664 17.5483C42.3598 19.1182 40.6569 19.8454 38.4872 19.8454C34.3972 19.8454 31.1205 16.6416 31.1205 12.6428C31.1205 10.5678 31.8111 8.92528 33.3014 7.45479C35.1191 5.66147 37.7989 4.91252 40.1964 5.52798ZM32.735 22.8739C34.5172 23.9374 37.2851 24.4711 39.7902 24.2342C41.7942 24.0445 43.4207 23.4375 45.4636 22.1167L45.9003 21.8344L45.8194 22.7924C45.4738 26.893 41.5531 29.9517 37.4462 29.3246C33.9615 28.7925 31.1312 25.7432 31.1223 22.5111L31.1205 21.8644L31.534 22.1342C31.7613 22.2825 32.3019 22.6154 32.735 22.8739ZM33.5748 32.7855C35.2693 33.5494 36.5161 33.8093 38.4872 33.8093C40.9824 33.8093 43.2334 33.1432 45.166 31.8328L45.8539 31.3664V32.0091C45.8539 35.6389 42.347 38.9368 38.4872 38.9368C35.2083 38.9368 32.1732 36.6345 31.351 33.5238C31.2243 33.0442 31.1205 32.3627 31.1205 32.0091V31.3664L31.8083 31.8328C32.1868 32.0893 32.9816 32.5181 33.5748 32.7855ZM65.7739 43.2408C63.8819 43.5281 61.8726 44.3006 60.2865 45.3503C59.9144 45.5967 57.5411 47.8243 55.0124 50.3007L50.4149 54.8032L50.2293 53.986C49.7845 52.0273 48.2715 50.0826 46.5528 49.2604C44.7914 48.418 44.4446 48.3958 34.0561 48.4581C23.575 48.5211 23.8014 48.5018 21.5731 49.5166C20.3377 50.079 19.259 50.7579 18.5318 51.4307C18.2644 51.6781 18.0252 51.8517 18.0004 51.8166C17.0169 50.4211 15.7671 49.4317 14.3043 48.89C13.392 48.5524 13.0437 48.5143 10.2937 48.4531C8.46222 48.4124 6.84215 48.4515 6.15931 48.5527C3.191 48.9931 0.758047 51.2123 0.165858 54.0193C0.0574626 54.5331 0.000183105 57.4925 0.000183105 62.5834C0.000183105 71.2649 0.0379184 71.6731 0.987165 73.259C1.58582 74.2593 2.70239 75.3217 3.73914 75.8779C5.35304 76.7434 4.48588 76.7129 27.4897 76.7153C45.9535 76.7172 48.6491 76.6897 49.0657 76.4948C49.3276 76.3725 55.6756 70.2219 63.1726 62.8271C77.8833 48.3166 77.1797 49.086 76.8969 47.8169C76.682 46.8521 74.6497 45.1357 72.6805 44.2557C70.6536 43.35 67.8081 42.9319 65.7739 43.2408ZM69.9658 47.9848C70.4716 48.1414 70.9869 48.335 71.111 48.415C71.2909 48.531 68.9058 50.9567 59.3096 60.4165L47.2828 72.2727H33.1128H18.943L18.9477 66.3093C18.9502 63.0295 19.017 59.8546 19.0961 59.2541C19.5071 56.1343 22.1089 53.5 25.2573 53.0163C26.5842 52.8123 43.1864 52.8143 43.9324 53.0185C45.0611 53.3274 45.8539 54.3017 45.8539 55.3799C45.8539 56.5813 45.093 57.5771 43.9324 57.8947C43.5885 57.9888 40.9132 58.0482 36.9838 58.0491C30.8741 58.0504 30.5729 58.0633 30.1044 58.345C28.6619 59.2117 28.6679 61.0522 30.1167 62.1102C30.5362 62.4166 30.6452 62.4201 39.513 62.4201C44.4474 62.4201 48.6878 62.365 48.9358 62.2976C49.2476 62.213 51.4757 60.1254 56.1521 55.5362C61.2614 50.5224 63.103 48.8057 63.6756 48.523C64.4441 48.1437 65.7037 47.7471 66.5256 47.6258C67.3048 47.5108 69.0092 47.6886 69.9658 47.9848ZM12.7093 53.0603C13.3822 53.3167 13.7521 53.6168 14.1111 54.1973C14.4288 54.7111 14.4318 54.7951 14.4322 63.4943L14.4328 72.2727H10.5192C6.26229 72.2727 5.98326 72.2287 5.23412 71.439C5.01191 71.2049 4.75829 70.8257 4.67034 70.5963C4.5648 70.3213 4.51038 67.5784 4.51038 62.544C4.51038 54.2789 4.50121 54.3786 5.33154 53.6099C5.99995 52.9911 6.6628 52.8766 9.54677 52.8816C11.2471 52.8846 12.4225 52.9509 12.7093 53.0603Z" fill="url(#paint0_linear_360_498)"/>
<defs>
<linearGradient id="paint0_linear_360_498" x1="38.5002" y1="0.866211" x2="38.5002" y2="76.7154" gradientUnits="userSpaceOnUse">
<stop stop-color="#EC5128"/>
<stop offset="1" stop-color="#FDB71B"/>
</linearGradient>
</defs>
</svg>
