<svg width="89" height="88" viewBox="0 0 89 88" fill="none" xmlns="http://www.w3.org/2000/svg">
<path fill-rule="evenodd" clip-rule="evenodd" d="M16.8344 0.168372C14.6113 0.598046 12.3629 2.31503 11.4166 4.30561C10.7688 5.66847 10.55 6.81016 10.55 8.82935V10.4336H8.9203C5.86115 10.4336 3.93102 11.1018 2.2717 12.7353C-0.756989 15.7166 -0.756989 20.5695 2.2717 23.5508C3.93102 25.1844 5.86115 25.8525 8.9203 25.8525H10.55V30.9922V36.1318H8.9203C5.86115 36.1318 3.93102 36.8 2.2717 38.4335C-0.756989 41.4149 -0.756989 46.2677 2.2717 49.249C3.93102 50.8826 5.86115 51.5507 8.9203 51.5507H10.55V56.6904V61.83H8.9203C5.86115 61.83 3.93102 62.4982 2.2717 64.1317C-0.756989 67.1131 -0.756989 71.9659 2.2717 74.9472C3.92667 76.5765 5.86254 77.2489 8.8968 77.2489H10.503L10.6002 79.3476C10.7082 81.6846 10.8805 82.3646 11.7295 83.8063C12.8627 85.7302 14.8699 87.1477 17.0051 87.5318C17.6478 87.6473 27.39 87.691 45.7221 87.6603L73.4664 87.6139L75.2068 87.1465C81.2559 85.5226 86.0471 81.1244 88.0586 75.3495C89.1511 72.2131 89.3018 68.4557 88.464 65.2477C87.7095 62.3592 86.6938 60.3842 84.7579 58.0419L83.8219 56.9092V32.0672C83.8219 15.8864 83.76 6.9037 83.6442 6.30322C83.0514 3.22629 80.5271 0.741441 77.4013 0.157921C76.2382 -0.0593146 17.9597 -0.0492066 16.8344 0.168372ZM77.2128 5.46751C77.6551 5.68955 78.0247 6.05343 78.2503 6.48876C78.5963 7.1564 78.6007 7.45159 78.6007 30.2327C78.6007 52.1387 78.5853 53.2939 78.2961 53.1673C78.1287 53.0942 77.3258 52.806 76.5121 52.5273C66.8295 49.2096 56.1142 54.7897 53.2202 64.6568C51.4979 70.5295 52.9946 76.9748 57.1506 81.581L57.9566 82.4742L38.2127 82.5229C27.3537 82.5496 18.2168 82.5274 17.9084 82.4732C17.1925 82.3476 16.3136 81.6212 16.0087 80.9031C15.8602 80.5532 15.7715 79.6838 15.772 78.5822L15.7725 76.8206L16.905 76.2443C18.927 75.215 20.4424 73.1043 20.8535 70.7446C21.3965 67.6268 19.7196 64.2674 16.905 62.8347L15.7725 62.2583V56.6904V51.1224L16.905 50.5461C19.7196 49.1133 21.3965 45.7539 20.8535 42.6362C20.4424 40.2764 18.927 38.1657 16.905 37.1364L15.7725 36.5601V30.9922V25.4242L16.905 24.8479C18.927 23.8186 20.4424 21.7079 20.8535 19.3481C21.3965 16.2304 19.7196 12.871 16.905 11.4382L15.7725 10.8619L15.772 9.01335C15.7711 6.81153 16.0728 6.02122 17.1221 5.47591C17.7624 5.1432 18.245 5.13772 47.1494 5.13018C76.2558 5.12264 76.5323 5.1259 77.2128 5.46751ZM14.3835 15.9181C15.1557 16.306 15.7713 17.293 15.7713 18.1431C15.7713 18.9932 15.1557 19.9801 14.3835 20.368C13.7681 20.6771 13.3605 20.7129 10.463 20.7129C6.70474 20.7129 6.13127 20.5549 5.50506 19.3468C5.06143 18.4907 5.06125 17.7956 5.50471 16.94C6.13022 15.7333 6.65061 15.5895 10.4265 15.5808C13.3695 15.5739 13.7653 15.6077 14.3835 15.9181ZM43.27 15.931C42.935 16.1271 40.7241 18.1869 38.357 20.5083L34.0531 24.7292L31.8262 22.5602C30.6015 21.3672 29.3807 20.3094 29.1136 20.2094C26.9248 19.3903 24.8722 21.4141 25.7036 23.5714C25.9382 24.1801 31.6062 29.8378 32.644 30.4991C33.6564 31.1443 34.4361 31.144 35.4475 30.4979C36.451 29.857 46.452 19.9402 46.8188 19.2224C47.4112 18.0629 46.9181 16.6068 45.7059 15.9361C44.8766 15.4773 44.0483 15.4756 43.27 15.931ZM53.845 21.0662C53.1102 21.448 52.4943 22.4588 52.4943 23.2827C52.4943 24.1328 53.1099 25.1198 53.8821 25.5077C54.5422 25.8392 54.8938 25.8525 62.9368 25.8525C70.9799 25.8525 71.3314 25.8392 71.9916 25.5077C72.7638 25.1198 73.3794 24.1328 73.3794 23.2827C73.3794 22.4326 72.7638 21.4456 71.9916 21.0578C71.3306 20.7259 70.9882 20.7132 62.9003 20.7204C54.8766 20.7276 54.4664 20.7434 53.845 21.0662ZM43.27 36.4895C42.935 36.6857 40.7241 38.7455 38.357 41.0669L34.0531 45.2877L31.8262 43.1188C30.6015 41.9257 29.3807 40.868 29.1136 40.7679C26.9248 39.9489 24.8722 41.9727 25.7036 44.13C25.9382 44.7387 31.6062 50.3964 32.644 51.0577C33.6564 51.7029 34.4361 51.7025 35.4475 51.0565C36.451 50.4156 46.452 40.4988 46.8188 39.781C47.4112 38.6215 46.9181 37.1654 45.7059 36.4947C44.8766 36.0359 44.0483 36.0342 43.27 36.4895ZM14.3835 41.6163C15.1557 42.0042 15.7713 42.9912 15.7713 43.8413C15.7713 44.6914 15.1557 45.6784 14.3835 46.0662C13.7681 46.3753 13.3605 46.4111 10.463 46.4111C6.70474 46.4111 6.13127 46.2531 5.50506 45.045C5.06143 44.1889 5.06125 43.4938 5.50471 42.6383C6.13022 41.4315 6.65061 41.2877 10.4265 41.279C13.3695 41.2721 13.7653 41.3059 14.3835 41.6163ZM53.845 41.6247C53.1102 42.0066 52.4943 43.0174 52.4943 43.8413C52.4943 44.6914 53.1099 45.6784 53.8821 46.0662C54.5422 46.3977 54.8938 46.4111 62.9368 46.4111C70.9799 46.4111 71.3314 46.3977 71.9916 46.0662C72.7638 45.6784 73.3794 44.6914 73.3794 43.8413C73.3794 42.9912 72.7638 42.0042 71.9916 41.6163C71.3306 41.2845 70.9882 41.2718 62.9003 41.279C54.8766 41.2862 54.4664 41.3019 53.845 41.6247ZM43.27 57.0481C42.935 57.2443 40.7241 59.3041 38.357 61.6255L34.0531 65.8463L31.8262 63.6774C30.6015 62.4843 29.3807 61.4266 29.1136 61.3265C26.9248 60.5074 24.8722 62.5312 25.7036 64.6885C25.9382 65.2972 31.6062 70.9549 32.644 71.6162C33.6564 72.2614 34.4361 72.2611 35.4475 71.615C36.451 70.9741 46.452 61.0574 46.8188 60.3395C47.4112 59.18 46.9181 57.724 45.7059 57.0532C44.8766 56.5944 44.0483 56.5927 43.27 57.0481ZM73.9885 57.0884C78.5791 58.3395 82.1605 61.8658 83.4154 66.37C83.8371 67.8838 83.9051 70.3164 83.5711 71.9414C82.5751 76.7879 79.3026 80.4177 74.5107 81.9909C73.277 82.396 72.8505 82.448 70.7687 82.448C68.687 82.448 68.2604 82.396 67.0268 81.9909C59.5139 79.5244 55.748 71.5827 58.7664 64.5712C60.3479 60.8973 64.074 57.8033 67.8179 57.055C68.34 56.9504 68.9239 56.8293 69.1153 56.7858C69.7548 56.64 73.1072 56.8482 73.9885 57.0884ZM69.5088 62.1833C68.3281 62.797 68.1581 63.3993 68.1581 66.9697C68.1581 70.5744 68.325 71.1513 69.5459 71.7644C70.1592 72.0725 70.5691 72.1093 73.3794 72.1093C76.1896 72.1093 76.5995 72.0725 77.2128 71.7644C77.9851 71.3766 78.6007 70.3896 78.6007 69.5395C78.6007 68.6894 77.9851 67.7024 77.2128 67.3145C76.6744 67.0442 76.186 66.9697 74.9527 66.9697H73.3794V65.4209C73.3794 63.5126 73.0306 62.6967 71.9916 62.1749C71.1341 61.7444 70.3486 61.7469 69.5088 62.1833ZM14.3835 67.3145C15.1557 67.7024 15.7713 68.6894 15.7713 69.5395C15.7713 70.3896 15.1557 71.3766 14.3835 71.7644C13.7681 72.0735 13.3605 72.1093 10.463 72.1093C6.70474 72.1093 6.13127 71.9513 5.50506 70.7432C5.06143 69.8871 5.06125 69.192 5.50471 68.3365C6.13022 67.1297 6.65061 66.9859 10.4265 66.9772C13.3695 66.9703 13.7653 67.0041 14.3835 67.3145Z" fill="url(#paint0_linear_360_506)"/>
<defs>
<linearGradient id="paint0_linear_360_506" x1="44.5002" y1="0" x2="44.5002" y2="87.6698" gradientUnits="userSpaceOnUse">
<stop stop-color="#EC5128"/>
<stop offset="1" stop-color="#FDB71B"/>
</linearGradient>
</defs>
</svg>
