<svg width="116" height="111" viewBox="0 0 116 111" fill="none" xmlns="http://www.w3.org/2000/svg">
<path d="M55.296 2.62879C56.3855 0.360917 59.6148 0.360918 60.7043 2.62879L75.8077 34.0672C76.245 34.9775 77.111 35.6067 78.1119 35.7414L112.679 40.3905C115.172 40.7259 116.17 43.7971 114.35 45.5341L89.1176 69.6133C88.387 70.3105 88.0562 71.3286 88.2374 72.3221L94.4976 106.634C94.9492 109.109 92.3367 111.007 90.1222 109.813L59.4243 93.2561C58.5354 92.7767 57.4649 92.7767 56.5761 93.2561L25.8781 109.813C23.6637 111.007 21.0512 109.109 21.5027 106.634L27.7629 72.3221C27.9442 71.3286 27.6134 70.3105 26.8827 69.6133L1.65022 45.5341C-0.169975 43.7971 0.827918 40.7259 3.32147 40.3905L37.8884 35.7414C38.8893 35.6067 39.7553 34.9775 40.1926 34.0672L55.296 2.62879Z" fill="white"/>
</svg>
