<svg width="1019" height="196" viewBox="0 0 1019 196" fill="none" xmlns="http://www.w3.org/2000/svg">
<g filter="url(#filter0_d_360_483)">
<path d="M6.00018 117C22.6668 154.667 75.1286 196.24 129 177C171 162 157.353 111 138 83.0001C122.334 60.3334 129 22.1699 197 35.0001C281.8 51.0001 346.334 109.667 368 137C380 162 413.8 205 453 177C492.2 149 492.135 109.431 485 69C479 35.0001 514.2 -16.6001 563 8.99989C611.8 34.5999 607.667 70.0001 615 83.0001L781 151C793.667 163 843 175.8 863 151C887.194 121 875.334 71.9997 888 42.9997C897.667 28.6664 944.2 4.59971 977 42.9997C1009.8 81.3997 1014.67 117 1013 130" stroke="white" stroke-width="3" stroke-linecap="round" stroke-dasharray="2 10"/>
</g>
<defs>
<filter id="filter0_d_360_483" x="0.499809" y="0.641602" width="1018.11" height="194.882" filterUnits="userSpaceOnUse" color-interpolation-filters="sRGB">
<feFlood flood-opacity="0" result="BackgroundImageFix"/>
<feColorMatrix in="SourceAlpha" type="matrix" values="0 0 0 0 0 0 0 0 0 0 0 0 0 0 0 0 0 0 127 0" result="hardAlpha"/>
<feOffset dy="4"/>
<feGaussianBlur stdDeviation="2"/>
<feComposite in2="hardAlpha" operator="out"/>
<feColorMatrix type="matrix" values="0 0 0 0 0 0 0 0 0 0 0 0 0 0 0 0 0 0 0.07 0"/>
<feBlend mode="normal" in2="BackgroundImageFix" result="effect1_dropShadow_360_483"/>
<feBlend mode="normal" in="SourceGraphic" in2="effect1_dropShadow_360_483" result="shape"/>
</filter>
</defs>
</svg>
