<svg width="551" height="587" viewBox="0 0 551 587" fill="none" xmlns="http://www.w3.org/2000/svg">
<g filter="url(#filter0_f_360_524)">
<path fill-rule="evenodd" clip-rule="evenodd" d="M13.7891 -284.471C81.6577 -274.993 115.876 -203.919 160.232 -151.758C198.875 -106.316 250.401 -65.1407 250.995 -5.52917C251.592 54.428 200.974 97.0481 163.177 143.64C118.004 199.323 85.4372 290.96 13.7891 286.867C-58.1343 282.759 -71.4084 181.118 -119.433 127.498C-162.215 79.7298 -236.362 57.4754 -248.092 -5.52917C-261.111 -75.4617 -228.992 -147.414 -180.273 -199.307C-130.035 -252.817 -58.9576 -294.629 13.7891 -284.471Z" fill="url(#paint0_linear_360_524)" fill-opacity="0.1"/>
</g>
<defs>
<filter id="filter0_f_360_524" x="-551" y="-586" width="1102" height="1173" filterUnits="userSpaceOnUse" color-interpolation-filters="sRGB">
<feFlood flood-opacity="0" result="BackgroundImageFix"/>
<feBlend mode="normal" in="SourceGraphic" in2="BackgroundImageFix" result="shape"/>
<feGaussianBlur stdDeviation="150" result="effect1_foregroundBlur_360_524"/>
</filter>
<linearGradient id="paint0_linear_360_524" x1="0" y1="-286" x2="0" y2="287" gradientUnits="userSpaceOnUse">
<stop stop-color="#6141B8"/>
<stop offset="1" stop-color="#FF00FA"/>
</linearGradient>
</defs>
</svg>
