<svg width="67" height="75" viewBox="0 0 67 75" fill="none" xmlns="http://www.w3.org/2000/svg">
<path d="M38.8998 75C28.0331 75 18.8998 71.5333 11.4998 64.6C4.09976 57.6 0.399756 48.6 0.399756 37.6C0.399756 26.4667 4.06642 17.4667 11.3998 10.6C18.7998 3.66666 27.9664 0.199996 38.8998 0.199996C44.2998 0.199996 49.4331 1.1 54.2998 2.9C59.2331 4.63333 63.3331 7 66.5998 9.99999L51.9998 27.6C49.3998 24.0667 45.4998 22.3 40.2998 22.3C36.2331 22.3 32.8331 23.7 30.0998 26.5C27.3664 29.3 25.9998 33 25.9998 37.6C25.9998 42.0667 27.3664 45.7 30.0998 48.5C32.8998 51.3 36.2998 52.7 40.2998 52.7C45.4331 52.7 49.3331 50.8 51.9998 47L66.5998 64.5C59.5998 71.5 50.3664 75 38.8998 75Z" fill="#DED2F5"/>
</svg>
